<svg width="31" height="31" viewBox="0 0 31 31" fill="none" xmlns="http://www.w3.org/2000/svg">
<path d="M15.5635 30.3652C7.4043 30.3652 0.62207 23.583 0.62207 15.4238C0.62207 7.25 7.38965 0.482422 15.5488 0.482422C23.7227 0.482422 30.5049 7.25 30.5049 15.4238C30.5049 23.583 23.7373 30.3652 15.5635 30.3652ZM13.9229 22.5869C14.4209 22.5869 14.8457 22.3525 15.1533 21.8691L22.0381 11.0293C22.2139 10.7217 22.4043 10.3848 22.4043 10.0625C22.4043 9.37402 21.8037 8.93457 21.1592 8.93457C20.7783 8.93457 20.3975 9.16895 20.1191 9.6084L13.8643 19.6572L10.8906 15.8193C10.5244 15.3359 10.2021 15.2041 9.77734 15.2041C9.11816 15.2041 8.60547 15.7461 8.60547 16.4053C8.60547 16.7422 8.7373 17.0645 8.95703 17.3574L12.6338 21.8691C13.0146 22.3818 13.4248 22.5869 13.9229 22.5869Z" fill="#2A6B42" style="fill:#2A6B42;fill:color(display-p3 0.1635 0.4213 0.2576);fill-opacity:1;"/>
</svg>
