<svg width="31" height="31" viewBox="0 0 31 31" fill="none" xmlns="http://www.w3.org/2000/svg">
<path d="M15.5635 30.3652C7.4043 30.3652 0.62207 23.583 0.62207 15.4238C0.62207 7.25 7.38965 0.482422 15.5488 0.482422C23.7227 0.482422 30.5049 7.25 30.5049 15.4238C30.5049 23.583 23.7373 30.3652 15.5635 30.3652ZM10.6416 21.5762C10.9785 21.5762 11.2861 21.459 11.5205 21.2246L15.5635 17.1523L19.6211 21.2246C19.8408 21.459 20.1484 21.5762 20.4854 21.5762C21.1738 21.5762 21.7158 21.0342 21.7158 20.3604C21.7158 20.0234 21.5986 19.7158 21.3496 19.4961L17.292 15.4385L21.3643 11.3662C21.6279 11.1025 21.7305 10.8389 21.7305 10.502C21.7305 9.82812 21.1885 9.30078 20.5146 9.30078C20.1924 9.30078 19.9287 9.40332 19.6797 9.65234L15.5635 13.7393L11.4766 9.66699C11.2422 9.44727 10.9785 9.33008 10.6416 9.33008C9.96777 9.33008 9.44043 9.84277 9.44043 10.5312C9.44043 10.8535 9.55762 11.1465 9.79199 11.3809L13.8496 15.4385L9.79199 19.5107C9.55762 19.7305 9.44043 20.0381 9.44043 20.3604C9.44043 21.0342 9.96777 21.5762 10.6416 21.5762Z" fill="#D12E2E" style="fill:#D12E2E;fill:color(display-p3 0.8215 0.1810 0.1810);fill-opacity:1;"/>
</svg>
