<svg viewBox="0 0 155 36" fill="none" xmlns="http://www.w3.org/2000/svg">
<g clip-path="url(#clip0_1139_20119)">
<path fill-rule="evenodd" clip-rule="evenodd" d="M47.4355 35.3375H0L24.2826 0.244385L47.4355 35.3375Z" fill="#CC2229" style="fill:#CC2229;fill:color(display-p3 0.8000 0.1333 0.1608);fill-opacity:1;"/>
<path fill-rule="evenodd" clip-rule="evenodd" d="M71.4419 20.4265C68.9224 21.576 67.6445 23.93 67.6445 27.4157V27.4701C67.6634 32.6893 70.4234 35.4093 75.776 35.4093H81.9809V32.0517H76.3137C73.5538 32.0517 72.4423 31.7945 72.3681 29.1866H81.9809V25.8274H72.3681C72.4423 23.3459 73.627 22.8535 76.3878 22.8535H81.9809V19.6243H75.776C74.0544 19.6243 72.6094 19.8976 71.4419 20.4265Z" fill="black" style="fill:black;fill-opacity:1;"/>
<path fill-rule="evenodd" clip-rule="evenodd" d="M63.1988 26.3952C66.0509 25.7186 67.533 23.7304 67.57 20.4272V20.3186C67.57 15.8285 65.1626 13.8216 60.0314 13.8216H48.6953V35.4108H53.2518V26.8876H58.6415L58.9749 27.4716L63.5133 35.4108H68.6067L63.8468 27.4716L63.1988 26.3952ZM58.9198 23.1098H53.2518V17.7267H58.9198C61.5505 17.7267 62.9403 18.1283 62.9584 20.4272V20.4637C62.9576 22.5801 61.5686 23.1098 58.9198 23.1098ZM92.4095 27.2517L99.04 20.4263L99.8173 19.6241H94.3919L93.6678 20.4263L87.6108 27.2339V13.8208H83.3334V35.4099H87.6108V27.7628L94.1309 35.4099H99.8173L92.6124 27.4708L92.4095 27.2517Z" fill="black" style="fill:black;fill-opacity:1;"/>
<path fill-rule="evenodd" clip-rule="evenodd" d="M109.837 25.719H106.056C104.669 25.719 103.964 25.2996 103.964 24.2783C103.964 22.9276 105.001 22.8547 106.908 22.8547H114.448V19.6253H105.278C103.685 19.6253 102.445 19.88 101.538 20.4275C100.221 21.1942 99.592 22.5261 99.592 24.4608C99.592 25.8284 99.8138 26.7971 100.295 27.4898C101.111 28.6749 102.704 29.0051 105.204 29.0051H108.815C110.427 29.0051 111.094 29.4432 111.094 30.5553C111.094 31.7225 110.428 32.0528 108.815 32.0528H99.8686V35.4103H110.871C113.317 35.4103 115.242 33.4026 115.242 30.4279C115.242 29.2064 114.946 28.219 114.372 27.472C113.486 26.3225 111.947 25.719 109.837 25.719ZM128.915 20.4267C127.654 19.7518 126.136 19.3867 124.394 19.3867C122.599 19.3867 121.042 19.7518 119.765 20.4267C117.245 21.7221 115.821 24.2044 115.821 27.4159V27.4703C115.839 32.4161 119.099 35.7558 124.394 35.7558C129.545 35.7558 132.768 32.4161 132.786 27.4703V27.4159C132.786 24.2053 131.377 21.723 128.915 20.4267ZM124.339 32.2531C121.858 32.2531 120.227 30.5731 120.209 27.4711V27.4168C120.209 24.4243 121.84 22.6908 124.339 22.6908C126.802 22.6908 128.414 24.4243 128.414 27.4168V27.4711C128.394 30.574 126.784 32.2531 124.339 32.2531Z" fill="black" style="fill:black;fill-opacity:1;"/>
<path fill-rule="evenodd" clip-rule="evenodd" d="M0.0541992 35.3378L37.6176 31.3784L47.4716 35.3378H0.0541992Z" fill="black" style="fill:black;fill-opacity:1;"/>
<path fill-rule="evenodd" clip-rule="evenodd" d="M0.0551758 35.3378L37.6186 31.3784L47.4725 35.3378H0.0551758Z" fill="black" style="fill:black;fill-opacity:1;"/>
<path d="M149.791 13.8208V19.6241L154.256 19.6233V22.6887H149.791V29.0217C149.791 31.302 150.367 32.2519 152.515 32.2519H154.256V35.4091H150.367C147.31 35.4091 145.512 33.6747 145.512 30.4267V22.6896H139.345V35.4099H135.012V22.6896H131.955V19.6241H135.012V18.0179C135.012 14.7334 135.881 13.8208 139.345 13.8208H143.365V16.9041H141.383C139.993 16.9041 139.345 17.2514 139.345 18.3465V19.6241H145.512V13.8208H149.791Z" fill="black" style="fill:black;fill-opacity:1;"/>
</g>
<defs>
<clipPath id="clip0_1139_20119">
<rect width="154.636" height="36" fill="white" style="fill:white;fill-opacity:1;"/>
</clipPath>
</defs>
</svg>
