<svg viewBox="0 0 140 38" fill="currentColor" xmlns="http://www.w3.org/2000/svg">
<path d="M12.1047 37.4911L0 1.177H8.53116L16.559 29.0354H17.012L24.7314 1.23675H33.6228L21.4663 37.4911H12.1047Z" fill="currentColor"/>
<path d="M44.4985 38C37.0856 38 32.5937 33.154 32.5937 25.3429V25.3208C32.5937 17.576 37.1299 12.5973 44.2329 12.5973C51.336 12.5973 55.7615 17.4654 55.7615 24.8339V26.8476H38.9886C39.055 30.8527 41.2014 33.1761 44.6312 33.1761C47.4636 33.1761 49.0347 31.6715 49.4772 30.7421L49.5436 30.6093H55.5624L55.5181 30.8306C54.7658 33.8842 51.6236 38 44.4985 38ZM44.3436 17.4432C41.5333 17.4432 39.4533 19.3462 39.055 22.7982H49.5657C49.1674 19.2577 47.1538 17.4432 44.3436 17.4432Z" fill="currentColor"/>
<path d="M60.1437 37.4911V13.1283H66.6051V16.8901H67.0034C68.1098 14.2568 70.5217 12.5973 73.9958 12.5973C79.4171 12.5973 82.338 15.9164 82.338 21.736V37.4911H75.8766V23.1965C75.8766 19.7667 74.4604 17.9522 71.4068 17.9522C68.4195 17.9522 66.6051 20.0986 66.6051 23.3956V37.4911H60.1437Z" fill="currentColor"/>
<path d="M94.3321 37.8672C89.6853 37.8672 86.3882 34.9906 86.3882 30.5651V30.5208C86.3882 26.1395 89.7738 23.5727 95.8368 23.2186L101.723 22.8646V20.8509C101.723 18.7488 100.285 17.5539 97.6292 17.5539C95.3058 17.5539 93.8232 18.3726 93.3143 19.8109L93.27 19.8994H87.2955L87.3176 19.7003C87.8266 15.4296 91.8538 12.5973 97.9832 12.5973C104.445 12.5973 108.096 15.6509 108.096 20.8509V37.4911H101.723V34.2604H101.325C100.085 36.5174 97.5185 37.8672 94.3321 37.8672ZM92.6947 30.1668C92.6947 32.0255 94.2657 33.154 96.5007 33.154C99.4879 33.154 101.723 31.1846 101.723 28.6178V26.8255L96.8104 27.1352C94.0445 27.3123 92.6947 28.3523 92.6947 30.1225V30.1668Z" fill="currentColor"/>
<path d="M113.518 37.4911V13.1283H119.979V16.9122H120.377C121.152 14.279 123.365 12.73 126.529 12.73C127.392 12.73 128.299 12.8628 128.941 13.0398V18.6824C127.967 18.4611 126.972 18.3062 125.976 18.3062C122.303 18.3062 119.979 20.4084 119.979 23.8603V37.4911H113.518Z" fill="currentColor"/>
<path d="M135.647 9.38872C133.655 9.38872 131.995 7.79551 131.995 5.80401C131.995 3.79037 133.655 2.19717 135.647 2.19717C137.638 2.19717 139.276 3.79037 139.276 5.80401C139.276 7.79551 137.638 9.38872 135.647 9.38872ZM132.394 37.4911V13.1283H138.855V37.4911H132.394Z" fill="currentColor"/>
<path d="M25.3788 1.23682H57.7486V7.71079H25.3788V1.23682Z" fill="currentColor"/>
<path d="M60.4517 6V1.10861H62.3815C62.7525 1.10861 63.0686 1.17946 63.3297 1.32117C63.5909 1.46129 63.7899 1.65634 63.9268 1.90633C64.0654 2.15472 64.1346 2.44132 64.1346 2.76614C64.1346 3.09096 64.0646 3.37756 63.9244 3.62596C63.7843 3.87435 63.5813 4.0678 63.3154 4.20633C63.0511 4.34486 62.731 4.41412 62.3553 4.41412H61.1253V3.58535H62.1881C62.3871 3.58535 62.5511 3.55112 62.6801 3.48265C62.8107 3.41259 62.9078 3.31626 62.9715 3.19366C63.0368 3.06946 63.0694 2.92696 63.0694 2.76614C63.0694 2.60373 63.0368 2.46202 62.9715 2.34101C62.9078 2.21841 62.8107 2.12367 62.6801 2.05679C62.5495 1.98833 62.3839 1.95409 62.1833 1.95409H61.4859V6H60.4517ZM64.6527 6V2.33146H65.6391V2.97154H65.6773C65.7442 2.74385 65.8565 2.57189 66.0141 2.45565C66.1717 2.33783 66.3532 2.27891 66.5586 2.27891C66.6096 2.27891 66.6645 2.2821 66.7234 2.28847C66.7824 2.29483 66.8341 2.30359 66.8787 2.31474V3.21754C66.8309 3.20321 66.7648 3.19047 66.6805 3.17933C66.5961 3.16818 66.5188 3.16261 66.4488 3.16261C66.2991 3.16261 66.1654 3.19525 66.0475 3.26053C65.9313 3.32422 65.839 3.41339 65.7705 3.52803C65.7036 3.64267 65.6702 3.77483 65.6702 3.9245V6H64.6527ZM68.757 6.07165C68.386 6.07165 68.0651 5.99283 67.7945 5.8352C67.5254 5.67598 67.3176 5.45465 67.1711 5.17123C67.0246 4.88622 66.9514 4.55583 66.9514 4.18006C66.9514 3.8011 67.0246 3.46991 67.1711 3.18649C67.3176 2.90148 67.5254 2.68016 67.7945 2.52253C68.0651 2.3633 68.386 2.28369 68.757 2.28369C69.128 2.28369 69.448 2.3633 69.7171 2.52253C69.9878 2.68016 70.1964 2.90148 70.3429 3.18649C70.4893 3.46991 70.5626 3.8011 70.5626 4.18006C70.5626 4.55583 70.4893 4.88622 70.3429 5.17123C70.1964 5.45465 69.9878 5.67598 69.7171 5.8352C69.448 5.99283 69.128 6.07165 68.757 6.07165ZM68.7618 5.28349C68.9305 5.28349 69.0715 5.23572 69.1845 5.14019C69.2976 5.04306 69.3827 4.9109 69.4401 4.74371C69.499 4.57653 69.5284 4.38625 69.5284 4.17289C69.5284 3.95953 69.499 3.76926 69.4401 3.60207C69.3827 3.43489 69.2976 3.30273 69.1845 3.2056C69.0715 3.10847 68.9305 3.05991 68.7618 3.05991C68.5914 3.05991 68.4481 3.10847 68.3319 3.2056C68.2172 3.30273 68.1304 3.43489 68.0715 3.60207C68.0142 3.76926 67.9855 3.95953 67.9855 4.17289C67.9855 4.38625 68.0142 4.57653 68.0715 4.74371C68.1304 4.9109 68.2172 5.04306 68.3319 5.14019C68.4481 5.23572 68.5914 5.28349 68.7618 5.28349ZM71.0897 2.33146H72.1071V6.18152C72.1071 6.46494 72.0514 6.69422 71.9399 6.86937C71.8285 7.04452 71.6684 7.17269 71.4599 7.2539C71.2529 7.3351 71.0053 7.3757 70.7171 7.3757C70.682 7.3757 70.6486 7.37491 70.6168 7.37332C70.5833 7.37332 70.5483 7.37252 70.5117 7.37093V6.5756C70.5387 6.57719 70.5626 6.57799 70.5833 6.57799C70.6024 6.57958 70.6231 6.58038 70.6454 6.58038C70.8094 6.58038 70.9241 6.54535 70.9893 6.47529C71.0562 6.40682 71.0897 6.30332 71.0897 6.1648V2.33146ZM71.596 1.85856C71.4463 1.85856 71.3174 1.8084 71.2091 1.70809C71.1008 1.60619 71.0467 1.48438 71.0467 1.34267C71.0467 1.20255 71.1008 1.08234 71.2091 0.982024C71.3174 0.88012 71.4463 0.829168 71.596 0.829168C71.7489 0.829168 71.8786 0.88012 71.9853 0.982024C72.0936 1.08234 72.1477 1.20255 72.1477 1.34267C72.1477 1.48438 72.0936 1.60619 71.9853 1.70809C71.8786 1.8084 71.7489 1.85856 71.596 1.85856ZM74.4595 6.07165C74.0821 6.07165 73.7573 5.99522 73.485 5.84237C73.2143 5.68792 73.0058 5.46978 72.8593 5.18795C72.7128 4.90453 72.6395 4.56936 72.6395 4.18245C72.6395 3.80508 72.7128 3.4739 72.8593 3.18888C73.0058 2.90387 73.212 2.68175 73.4779 2.52253C73.7454 2.3633 74.059 2.28369 74.4189 2.28369C74.6609 2.28369 74.8862 2.3227 75.0948 2.40072C75.305 2.47715 75.4881 2.59259 75.6441 2.74703C75.8018 2.90148 75.9244 3.09574 76.0119 3.3298C76.0995 3.56227 76.1433 3.83454 76.1433 4.14662V4.42606H73.0456V3.79553H75.1856C75.1856 3.64904 75.1537 3.51927 75.09 3.40622C75.0263 3.29318 74.938 3.20481 74.8249 3.14112C74.7135 3.07583 74.5837 3.04319 74.4356 3.04319C74.2812 3.04319 74.1442 3.07902 74.0248 3.15067C73.907 3.22073 73.8146 3.31547 73.7478 3.43489C73.6809 3.55271 73.6466 3.68407 73.6451 3.82897V4.42845C73.6451 4.60997 73.6785 4.7668 73.7454 4.89896C73.8138 5.03112 73.9102 5.13302 74.0344 5.20467C74.1586 5.27632 74.3058 5.31215 74.4762 5.31215C74.5893 5.31215 74.6928 5.29623 74.7867 5.26438C74.8806 5.23254 74.961 5.18477 75.0279 5.12108C75.0948 5.05739 75.1457 4.97937 75.1808 4.88702L76.1218 4.94912C76.074 5.17521 75.9761 5.37265 75.828 5.54143C75.6815 5.70862 75.4921 5.83918 75.2596 5.93313C75.0287 6.02548 74.762 6.07165 74.4595 6.07165ZM78.3303 6.07165C77.9545 6.07165 77.6313 5.99204 77.3606 5.83281C77.0915 5.672 76.8845 5.44908 76.7396 5.16407C76.5963 4.87906 76.5247 4.55105 76.5247 4.18006C76.5247 3.80429 76.5971 3.47469 76.742 3.19127C76.8885 2.90626 77.0963 2.68414 77.3654 2.52491C77.6345 2.3641 77.9545 2.28369 78.3255 2.28369C78.6455 2.28369 78.9258 2.34181 79.1662 2.45804C79.4066 2.57427 79.5969 2.73748 79.737 2.94766C79.8772 3.15783 79.9544 3.40463 79.9687 3.68805H79.0086C78.9815 3.50494 78.9099 3.35766 78.7936 3.2462C78.679 3.13315 78.5285 3.07663 78.3422 3.07663C78.1846 3.07663 78.0469 3.11962 77.929 3.2056C77.8128 3.28999 77.722 3.41339 77.6568 3.5758C77.5915 3.73821 77.5588 3.93485 77.5588 4.16573C77.5588 4.39979 77.5907 4.59882 77.6544 4.76282C77.7197 4.92682 77.8112 5.05182 77.929 5.1378C78.0469 5.22378 78.1846 5.26677 78.3422 5.26677C78.4585 5.26677 78.5628 5.24289 78.6551 5.19512C78.749 5.14735 78.8263 5.07809 78.8868 4.98733C78.9489 4.89498 78.9895 4.78432 79.0086 4.65534H79.9687C79.9528 4.93558 79.8764 5.18238 79.7394 5.39574C79.6041 5.60751 79.417 5.7731 79.1782 5.89252C78.9393 6.01194 78.6567 6.07165 78.3303 6.07165ZM82.4369 2.33146V3.09574H80.2277V2.33146H82.4369ZM80.7292 1.45253H81.7467V4.87269C81.7467 4.96663 81.761 5.03987 81.7897 5.09242C81.8183 5.14337 81.8581 5.1792 81.9091 5.19989C81.9616 5.22059 82.0221 5.23094 82.0906 5.23094C82.1384 5.23094 82.1861 5.22696 82.2339 5.219C82.2817 5.20945 82.3183 5.20228 82.3438 5.19751L82.5038 5.95462C82.4528 5.97054 82.3812 5.98885 82.2888 6.00955C82.1965 6.03185 82.0842 6.04538 81.9521 6.05016C81.7069 6.05971 81.4919 6.02707 81.3072 5.95223C81.1241 5.8774 80.9816 5.76116 80.8797 5.60353C80.7778 5.4459 80.7276 5.24687 80.7292 5.00644V1.45253Z" fill="currentColor"/>
</svg>
