<svg width="155" height="36" viewBox="0 0 155 36" fill="none" xmlns="http://www.w3.org/2000/svg">
<g clip-path="url(#clip0_1141_18028)">
<path fill-rule="evenodd" clip-rule="evenodd" d="M71.4419 20.4272C68.9224 21.5767 67.6445 23.9308 67.6445 27.4165V27.4708C67.6634 32.69 70.4234 35.4099 75.776 35.4099H81.9809V32.0524H76.3137C73.5538 32.0524 72.4423 31.7952 72.3681 29.1873H81.9809V25.8281H72.3681C72.4423 23.3467 73.627 22.8543 76.3878 22.8543H81.9809V19.625H75.776C74.0544 19.625 72.6094 19.8984 71.4419 20.4272Z" fill="white" style="fill:white;fill-opacity:1;"/>
<path fill-rule="evenodd" clip-rule="evenodd" d="M63.1988 26.3946C66.0509 25.7181 67.533 23.7298 67.57 20.4266V20.318C67.57 15.828 65.1626 13.8211 60.0314 13.8211H48.6953V35.4102H53.2518V26.887H58.6415L58.9749 27.4711L63.5133 35.4102H68.6067L63.8468 27.4711L63.1988 26.3946ZM58.9198 23.1093H53.2518V17.7262H58.9198C61.5505 17.7262 62.9403 18.1277 62.9584 20.4266V20.4631C62.9576 22.5795 61.5686 23.1093 58.9198 23.1093ZM92.4095 27.2512L99.04 20.4258L99.8173 19.6236H94.3919L93.6678 20.4258L87.6108 27.2333V13.8203H83.3334V35.4094H87.6108V27.7623L94.1309 35.4094H99.8173L92.6124 27.4702L92.4095 27.2512Z" fill="white" style="fill:white;fill-opacity:1;"/>
<path fill-rule="evenodd" clip-rule="evenodd" d="M109.839 25.719H106.058C104.671 25.719 103.966 25.2996 103.966 24.2783C103.966 22.9276 105.003 22.8547 106.91 22.8547H114.449V19.6253H105.28C103.686 19.6253 102.447 19.88 101.539 20.4275C100.223 21.1942 99.5938 22.5261 99.5938 24.4608C99.5938 25.8284 99.8155 26.7971 100.297 27.4898C101.112 28.6749 102.705 29.0051 105.206 29.0051H108.816C110.429 29.0051 111.096 29.4432 111.096 30.5553C111.096 31.7225 110.43 32.0528 108.816 32.0528H99.8703V35.4103H110.873C113.319 35.4103 115.244 33.4026 115.244 30.4279C115.244 29.2064 114.948 28.219 114.373 27.472C113.488 26.3225 111.949 25.719 109.839 25.719ZM128.917 20.4267C127.656 19.7518 126.138 19.3867 124.396 19.3867C122.601 19.3867 121.044 19.7518 119.767 20.4267C117.247 21.7221 115.822 24.2044 115.822 27.4159V27.4703C115.84 32.4161 119.101 35.7558 124.396 35.7558C129.547 35.7558 132.769 32.4161 132.787 27.4703V27.4159C132.787 24.2053 131.378 21.723 128.917 20.4267ZM124.34 32.2531C121.86 32.2531 120.229 30.5731 120.21 27.4711V27.4168C120.21 24.4243 121.842 22.6908 124.34 22.6908C126.804 22.6908 128.416 24.4243 128.416 27.4168V27.4711C128.396 30.574 126.786 32.2531 124.34 32.2531Z" fill="white" style="fill:white;fill-opacity:1;"/>
<path fill-rule="evenodd" clip-rule="evenodd" d="M47.4227 35.3178L37.618 31.3782L0.0582381 35.3372H0L24.2826 0.244141L47.4227 35.3178Z" fill="white" style="fill:white;fill-opacity:1;"/>
<path fill-rule="evenodd" clip-rule="evenodd" d="M0.0546875 35.3383L37.6181 31.3789L47.472 35.3383H0.0546875Z" fill="white" fill-opacity="0.4" style="fill:white;fill-opacity:0.4;"/>
<path d="M149.789 13.8203V19.6236L154.254 19.6228V22.6883H149.789V29.0212C149.789 31.3015 150.365 32.2514 152.513 32.2514H154.254V35.4086H150.365C147.308 35.4086 145.51 33.6742 145.51 30.4262V22.6891H139.343V35.4094H135.01V22.6891H131.953V19.6236H135.01V18.0174C135.01 14.7329 135.879 13.8203 139.343 13.8203H143.363V16.9036H141.381C139.991 16.9036 139.343 17.2509 139.343 18.346V19.6236H145.51V13.8203H149.789Z" fill="white" style="fill:white;fill-opacity:1;"/>
</g>
<defs>
<clipPath id="clip0_1141_18028">
<rect width="154.636" height="36" fill="white" style="fill:white;fill-opacity:1;"/>
</clipPath>
</defs>
</svg>
