<svg width="36" height="36" viewBox="0 0 36 36" fill="none" xmlns="http://www.w3.org/2000/svg">
<path d="M17.7129 35.3149C8.05713 35.3149 0.059082 27.334 0.059082 17.6611C0.059082 8.00537 8.04004 0.00732422 17.6958 0.00732422C27.3687 0.00732422 35.3667 8.00537 35.3667 17.6611C35.3667 27.334 27.3687 35.3149 17.7129 35.3149ZM15.8159 26.1035C16.4482 26.1035 16.9951 25.7788 17.3882 25.1978L25.3862 12.7222C25.6255 12.3462 25.8306 11.9189 25.8306 11.5259C25.8306 10.6372 25.0615 10.0391 24.207 10.0391C23.6602 10.0391 23.1816 10.3296 22.8228 10.9277L15.7476 22.2412L12.4492 18.0542C12.022 17.5073 11.6118 17.3022 11.082 17.3022C10.1934 17.3022 9.50977 18.02 9.50977 18.8916C9.50977 19.3188 9.66357 19.729 9.97119 20.105L14.1582 25.1978C14.6367 25.813 15.1665 26.1035 15.8159 26.1035Z" fill="#CC2229" style="fill:#CC2229;fill:color(display-p3 0.8000 0.1333 0.1608);fill-opacity:1;"/>
</svg>
