<svg viewBox="0 0 24 20" fill="currentColor" xmlns="http://www.w3.org/2000/svg">
<path d="M8.35156 3.07422V3.95312H15.2266V3.07422C15.2266 2.33203 14.7969 1.91211 14.0352 1.91211H9.55273C8.79102 1.91211 8.35156 2.33203 8.35156 3.07422ZM11.7891 9.71484C7.80469 9.71484 4.14258 9.14844 0.490234 7.54688V6.93164C0.490234 4.92969 1.49609 3.95312 3.50781 3.95312H6.83789V3.18164C6.83789 1.3457 7.90234 0.486328 9.57227 0.486328H14.0059C15.7734 0.486328 16.7402 1.3457 16.7402 3.18164V3.95312H20.0801C22.1016 3.95312 23.0977 4.92969 23.0977 6.93164V7.54688C19.4453 9.14844 15.7832 9.71484 11.7891 9.71484ZM3.50781 19.4121C1.49609 19.4121 0.490234 18.4355 0.490234 16.4336V9.1582C3.45898 10.2812 6.32031 10.8672 9.19141 11.0625V11.8535C9.19141 12.5371 9.5918 12.918 10.2754 12.918H13.3125C13.9961 12.918 14.3965 12.5371 14.3965 11.8535V11.0625C17.2676 10.8672 20.1289 10.2812 23.0977 9.1582V16.4336C23.0977 18.4355 22.1016 19.4121 20.0801 19.4121H3.50781Z"/>
</svg>
