<svg viewBox="0 0 23 12" fill="currentColor" xmlns="http://www.w3.org/2000/svg">
<path d="M11.5449 5.61133C10.2852 5.61133 9.20117 4.48633 9.20117 3.0332C9.20117 1.59766 10.291 0.501953 11.5449 0.501953C12.7988 0.501953 13.8887 1.57422 13.8887 3.02148C13.8887 4.48633 12.7988 5.61133 11.5449 5.61133ZM4.78906 5.74609C3.69922 5.74609 2.75 4.76172 2.75 3.50195C2.74414 2.24805 3.70508 1.29883 4.78906 1.29883C5.87891 1.29883 6.82812 2.22461 6.82812 3.49023C6.82812 4.76172 5.88477 5.74609 4.78906 5.74609ZM18.2832 5.74609C17.1934 5.74609 16.2441 4.76172 16.2441 3.49023C16.2441 2.22461 17.1992 1.29883 18.2832 1.29883C19.373 1.29883 20.3281 2.24805 20.3281 3.50195C20.3281 4.76172 19.3789 5.74609 18.2832 5.74609ZM1.52539 11.0371C0.78125 11.0371 0.494141 10.7441 0.494141 10.2109C0.494141 8.59375 2.14648 6.64258 4.78906 6.64258C5.87891 6.64258 6.7168 6.96484 7.37305 7.39844C6.10742 8.37109 5.36328 10.1523 5.97266 11.0371H1.52539ZM21.5527 11.0371H17.0996C17.709 10.1523 16.9648 8.37109 15.7051 7.39844C16.3555 6.96484 17.1934 6.64258 18.2891 6.64258C20.9316 6.64258 22.584 8.59375 22.584 10.2109C22.584 10.7441 22.2969 11.0371 21.5527 11.0371ZM7.85938 11.0371C6.93945 11.0371 6.61133 10.7734 6.61133 10.2578C6.61133 8.74609 8.50391 6.66016 11.5391 6.66016C14.5801 6.66016 16.4727 8.74609 16.4727 10.2578C16.4727 10.7734 16.1445 11.0371 15.2188 11.0371H7.85938Z"/>
</svg>
