<svg viewBox="0 0 34 31" fill="currentColor" xmlns="http://www.w3.org/2000/svg">
<path d="M6.42285 30.7021C5.29492 30.7021 4.97266 29.7793 5.54395 29.0469C6.10059 28.3145 7.56543 26.7031 8.38574 25.3555C8.50293 25.1357 8.42969 24.916 8.20996 24.7988C3.50781 22.2793 0.62207 18.1631 0.62207 13.4756C0.62207 6.10742 8.00488 0.160156 17.2334 0.160156C26.4619 0.160156 33.8447 6.10742 33.8447 13.4756C33.8447 20.7705 26.8428 26.7764 16.2812 26.7764C16.0908 26.7764 15.9004 26.7617 15.71 26.7471C15.5049 26.7471 15.2998 26.8203 15.0508 26.9961C12.5605 28.7832 8.18066 30.7021 6.42285 30.7021Z"/>
</svg>
