<svg viewBox="0 0 20 21" fill="currentColor" xmlns="http://www.w3.org/2000/svg">
<path d="M4.88477 14.3379C4.88477 12.043 5.49023 10.6074 6.74023 8.94727C8.21484 6.99414 10.1484 4.70898 11.6035 1.88672C11.9746 1.1543 12.3164 0.675781 13.0195 0.675781C13.7812 0.675781 14.3672 1.20312 14.3672 2.11133C14.3672 3.83008 12.7363 6.23242 12.7363 7.53125C12.7363 8.25391 13.3125 8.70312 14.1816 8.70312H17.6191C18.5859 8.70312 19.3184 9.47461 19.3184 10.4121C19.3184 10.9688 19.123 11.4082 18.8203 11.6621C18.6641 11.8086 18.6348 11.9062 18.791 12.043C19.0449 12.2773 19.1914 12.7559 19.1914 13.2148C19.1914 13.8496 18.8789 14.3965 18.4492 14.6504C18.2637 14.748 18.2539 14.8848 18.3613 15.0312C18.5762 15.2949 18.7031 15.6855 18.7031 16.125C18.7031 16.8965 18.2051 17.4629 17.5996 17.7168C17.4824 17.7656 17.4629 17.8633 17.541 17.9902C17.6582 18.1953 17.7559 18.4688 17.7559 18.8496C17.7559 19.7676 17.0234 20.2363 16.2617 20.4219C15.7344 20.5684 14.7969 20.6562 13.5371 20.6562H12.209C7.66797 20.6562 4.88477 17.9023 4.88477 14.3379ZM0.0703125 14.416C0.0703125 11.418 1.75977 9.07422 3.9375 9.07422H5.33398C4.49414 10.1289 3.54688 11.877 3.53711 14.3184C3.53711 16.5156 4.25977 18.4492 6.01758 19.7285H4.29883C1.87695 19.7285 0.0703125 17.3066 0.0703125 14.416Z"/>
</svg>
