<svg viewBox="0 0 33 21" fill="currentColor" xmlns="http://www.w3.org/2000/svg">
<path d="M29.748 13.9414C29.3867 13.6973 29.3379 13.2383 29.6113 12.8379C30.6562 11.3145 31.291 9.3125 31.291 7.23242C31.291 5.15234 30.6758 3.13086 29.6113 1.62695C29.3281 1.22656 29.3867 0.767578 29.748 0.523438C30.1094 0.279297 30.5586 0.357422 30.8223 0.738281C32.082 2.4375 32.8047 4.82031 32.8047 7.23242C32.8047 9.64453 32.0723 12.0078 30.8223 13.7266C30.5586 14.0977 30.1094 14.1855 29.748 13.9414ZM26.125 11.3926C25.7344 11.1094 25.6758 10.6406 25.9785 10.2305C26.5352 9.43945 26.8672 8.36523 26.8672 7.23242C26.8672 6.09961 26.5449 5.01562 25.9785 4.23438C25.666 3.83398 25.7344 3.3457 26.125 3.07227C26.457 2.83789 26.916 2.91602 27.1797 3.28711C27.9316 4.29297 28.3809 5.73828 28.3809 7.23242C28.3809 8.72656 27.9316 10.1816 27.1797 11.168C26.916 11.5488 26.457 11.6172 26.125 11.3926ZM18.8984 11.6855C16.7988 11.6855 14.9922 9.81055 14.9922 7.38867C14.9922 4.99609 16.8086 3.16992 18.8984 3.16992C20.9883 3.16992 22.8047 4.95703 22.8047 7.36914C22.8047 9.81055 20.998 11.6855 18.8984 11.6855ZM7.6582 11.9102C5.83203 11.9102 4.25 10.2695 4.25 8.16992C4.25 6.08008 5.8418 4.49805 7.6582 4.49805C9.46484 4.49805 11.0566 6.04102 11.0566 8.15039C11.0566 10.2695 9.47461 11.9102 7.6582 11.9102ZM2.20898 20.7285C0.978516 20.7285 0.490234 20.2402 0.490234 19.3516C0.490234 16.6562 3.24414 13.4043 7.64844 13.4043C9.47461 13.4043 10.8711 13.9414 11.9551 14.6641C9.85547 16.2852 8.61523 19.2539 9.63086 20.7285H2.20898ZM12.7559 20.7285C11.2227 20.7285 10.6758 20.2891 10.6758 19.4297C10.6758 16.9102 13.8301 13.4336 18.8887 13.4336C23.957 13.4336 27.1113 16.9102 27.1113 19.4297C27.1113 20.2891 26.5645 20.7285 25.0312 20.7285H12.7559Z"/>
</svg>
