<svg viewBox="0 0 26 33" fill="currentColor" xmlns="http://www.w3.org/2000/svg">
<path d="M0.735352 27.542V5.32031C0.735352 2.27344 2.24414 0.720703 5.27637 0.720703H20.833C23.8652 0.720703 25.374 2.27344 25.374 5.32031V27.542C25.374 30.6035 23.8652 32.127 20.833 32.127H5.27637C2.24414 32.127 0.735352 30.6035 0.735352 27.542ZM7.25391 8.00098H19.4268C19.9688 8.00098 20.3643 7.59082 20.3643 7.06348C20.3643 6.53613 19.9688 6.12598 19.4268 6.12598H7.25391C6.69727 6.12598 6.30176 6.53613 6.30176 7.06348C6.30176 7.59082 6.69727 8.00098 7.25391 8.00098ZM7.25391 12.3809H14.3877C14.9297 12.3809 15.3398 11.9707 15.3398 11.4434C15.3398 10.9307 14.9297 10.5205 14.3877 10.5205H7.25391C6.69727 10.5205 6.30176 10.9307 6.30176 11.4434C6.30176 11.9707 6.69727 12.3809 7.25391 12.3809ZM7.48828 27.3223H18.6357C19.9688 27.3223 20.6426 26.6338 20.6426 25.3008V16.9219C20.6426 15.5889 19.9688 14.9004 18.6357 14.9004H7.48828C6.19922 14.9004 5.4668 15.5889 5.4668 16.9219V25.3008C5.4668 26.6338 6.19922 27.3223 7.48828 27.3223Z"/>
</svg>
