<svg viewBox="0 0 21 19" fill="currentColor" xmlns="http://www.w3.org/2000/svg">
<path d="M4.89453 18.9531C2.9707 18.9531 1.94531 17.9668 1.94531 16.043V6.31641C0.998047 6.16016 0.490234 5.44727 0.490234 4.40234V2.91797C0.490234 1.72656 1.20312 0.974609 2.3457 0.974609H18.1562C19.3574 0.974609 20.0117 1.72656 20.0117 2.91797V4.40234C20.0117 5.44727 19.5039 6.16016 18.5566 6.31641V16.043C18.5566 17.957 17.5312 18.9531 15.6074 18.9531H4.89453ZM2.74609 4.87109H17.7656C18.2539 4.87109 18.4395 4.66602 18.4395 4.17773V3.14258C18.4395 2.6543 18.2539 2.44922 17.7656 2.44922H2.74609C2.25781 2.44922 2.0625 2.6543 2.0625 3.14258V4.17773C2.0625 4.66602 2.25781 4.87109 2.74609 4.87109ZM4.875 17.4785H15.627C16.4961 17.4785 16.9844 17 16.9844 16.1211V6.3457H3.51758V16.1211C3.51758 17 3.99609 17.4785 4.875 17.4785ZM7.0332 10.2812C6.62305 10.2812 6.33984 9.99805 6.33984 9.56836V9.25586C6.33984 8.82617 6.62305 8.55273 7.0332 8.55273H13.4785C13.8887 8.55273 14.1816 8.82617 14.1816 9.25586V9.56836C14.1816 9.99805 13.8887 10.2812 13.4785 10.2812H7.0332Z" fill="currentColor"/>
</svg>
