<svg viewBox="0 0 22 19" fill="currentColor" xmlns="http://www.w3.org/2000/svg">
<path d="M0.435547 9.65079C0.435547 9.29922 0.582031 8.8793 0.962891 8.51797L8.69727 1.25235C9.20508 0.7836 9.625 0.568756 10.1523 0.568756C10.9043 0.568756 11.4609 1.1254 11.4609 1.86758V5.39297H19.0781C20.7188 5.39297 21.6758 6.33047 21.6758 7.95157V11.3207C21.6758 12.9418 20.7188 13.8793 19.0781 13.8793L11.4609 13.8793L11.4609 17.3754C11.4609 18.1273 10.9043 18.7328 10.1328 18.7328C9.61523 18.7328 9.25391 18.518 8.69727 18.0004L0.962891 10.7836C0.582031 10.4223 0.435547 10.0219 0.435547 9.65079ZM2.57422 9.65079C2.57422 9.70938 2.60352 9.75821 2.67188 9.83633L9.37109 16.2328C9.41992 16.2816 9.47852 16.3109 9.53711 16.3109C9.625 16.3109 9.68359 16.2523 9.68359 16.1645L9.68359 12.4535C9.68359 12.2289 9.78125 12.1313 10.0059 12.1313L18.9805 12.1313C19.5859 12.1313 19.9277 11.7992 19.9277 11.184V8.08829C19.9277 7.47305 19.5859 7.14102 18.9805 7.14102L10.0059 7.14102C9.78125 7.14102 9.68359 7.04337 9.68359 6.81876V3.20547C9.68359 3.11758 9.625 3.04922 9.53711 3.04922C9.48828 3.04922 9.42969 3.07852 9.37109 3.12735L2.67188 9.46524C2.60352 9.54337 2.57422 9.59219 2.57422 9.65079Z"/>
</svg>
