<svg viewBox="0 0 26 26" fill="currentColor" xmlns="http://www.w3.org/2000/svg">
<path d="M13.3638 0.362305C20.1631 0.362305 25.8149 6.01416 25.8149 12.8135C25.8149 19.625 20.1753 25.2646 13.376 25.2646C6.56445 25.2646 0.912598 19.625 0.912598 12.8135C0.912598 6.01416 6.55225 0.362305 13.3638 0.362305ZM13.3638 2.4375C7.60205 2.4375 2.98779 7.05176 2.98779 12.8135C2.98779 18.5752 7.61426 23.1895 13.376 23.1895C19.1377 23.1895 23.7275 18.5752 23.7275 12.8135C23.7275 7.05176 19.1255 2.4375 13.3638 2.4375ZM13.3638 6.70996C13.8887 6.70996 14.2793 7.08838 14.2793 7.62549V13.729L14.1816 16.3047L15.4023 14.8398L16.855 13.375C17.0259 13.2163 17.2456 13.1064 17.502 13.1064C18.0024 13.1064 18.3809 13.4971 18.3809 13.9854C18.3809 14.2417 18.3076 14.4614 18.1489 14.6201L14.0718 18.6851C13.8276 18.9292 13.6201 19.0269 13.3638 19.0269C13.0952 19.0269 12.8755 18.917 12.6436 18.6851L8.57861 14.6201C8.41992 14.4614 8.32227 14.2417 8.32227 13.9854C8.32227 13.4971 8.71289 13.1064 9.21338 13.1064C9.48193 13.1064 9.70166 13.2041 9.86035 13.375L11.3008 14.8398L12.5459 16.3169L12.4482 13.729V7.62549C12.4482 7.08838 12.8267 6.70996 13.3638 6.70996Z"/>
</svg>
