<svg viewBox="0 0 22 19" fill="currentColor" xmlns="http://www.w3.org/2000/svg">
<path d="M21.5645 9.54922C21.5645 9.90079 21.418 10.3207 21.0371 10.682L13.3027 17.9477C12.7949 18.4164 12.375 18.6313 11.8477 18.6313C11.0957 18.6313 10.5391 18.0746 10.5391 17.3324V13.807H2.92188C1.28125 13.807 0.324219 12.8695 0.324219 11.2484V7.8793C0.324219 6.25821 1.28125 5.32071 2.92188 5.32071H10.5391V1.82462C10.5391 1.07266 11.0957 0.467194 11.8672 0.467194C12.3848 0.467194 12.7461 0.682037 13.3027 1.19962L21.0371 8.41641C21.418 8.77774 21.5645 9.17813 21.5645 9.54922ZM19.4258 9.54922C19.4258 9.49063 19.3965 9.4418 19.3281 9.36368L12.6289 2.96719C12.5801 2.91837 12.5215 2.88907 12.4629 2.88907C12.375 2.88907 12.3164 2.94766 12.3164 3.03555V6.74649C12.3164 6.9711 12.2188 7.06876 11.9941 7.06876H3.01953C2.41406 7.06876 2.07227 7.40079 2.07227 8.01602V11.1117C2.07227 11.727 2.41406 12.059 3.01953 12.059H11.9941C12.2188 12.059 12.3164 12.1566 12.3164 12.3813V15.9945C12.3164 16.0824 12.375 16.1508 12.4629 16.1508C12.5117 16.1508 12.5703 16.1215 12.6289 16.0727L19.3281 9.73477C19.3965 9.65665 19.4258 9.60782 19.4258 9.54922Z"/>
</svg>
