<svg viewBox="0 0 23 22" fill="currentColor" xmlns="http://www.w3.org/2000/svg">
<path d="M0.490234 18.4688V10.002C0.490234 8.83984 1.22266 8.16602 2.46289 8.16602H4.79688V3.50781C4.79688 1.49609 5.82227 0.480469 7.86328 0.480469H19.6309C21.6816 0.480469 22.6973 1.49609 22.6973 3.50781V18.4004C22.6973 20.4121 21.6816 21.418 19.6309 21.418H3.43945C1.45703 21.418 0.490234 20.4121 0.490234 18.4688ZM6.03711 19.8457H19.6016C20.5781 19.8457 21.125 19.3281 21.125 18.3125V3.5957C21.125 2.58008 20.5781 2.05273 19.6016 2.05273H7.89258C6.91602 2.05273 6.36914 2.58008 6.36914 3.5957V18.3711C6.36914 18.9375 6.25195 19.4258 6.03711 19.8457ZM8.9082 6.30078C8.55664 6.30078 8.29297 6.02734 8.29297 5.68555C8.29297 5.35352 8.55664 5.09961 8.9082 5.09961H18.6055C18.9473 5.09961 19.2109 5.35352 19.2109 5.68555C19.2109 6.02734 18.9473 6.30078 18.6055 6.30078H8.9082ZM8.9082 9.73828C8.55664 9.73828 8.29297 9.47461 8.29297 9.14258C8.29297 8.80078 8.55664 8.53711 8.9082 8.53711H18.6055C18.9473 8.53711 19.2109 8.80078 19.2109 9.14258C19.2109 9.47461 18.9473 9.73828 18.6055 9.73828H8.9082ZM2.0625 18.4688C2.0625 19.25 2.66797 19.8457 3.43945 19.8457C4.20117 19.8457 4.79688 19.2793 4.79688 18.4688V9.73828H2.63867C2.27734 9.73828 2.0625 9.94336 2.0625 10.3047V18.4688ZM9.48438 16.7012C8.73242 16.7012 8.2832 16.252 8.2832 15.5098V13.1855C8.2832 12.4336 8.73242 11.9844 9.48438 11.9844H12.0137C12.7559 11.9844 13.2051 12.4336 13.2051 13.1855V15.5098C13.2051 16.252 12.7559 16.7012 12.0137 16.7012H9.48438ZM14.9629 13.1855C14.6113 13.1855 14.3574 12.9316 14.3574 12.5996C14.3574 12.248 14.6113 11.9844 14.9629 11.9844H18.5957C18.9473 11.9844 19.2012 12.248 19.2012 12.5996C19.2012 12.9316 18.9473 13.1855 18.5957 13.1855H14.9629ZM14.9629 16.7012C14.6113 16.7012 14.3574 16.4473 14.3574 16.1152C14.3574 15.7734 14.6113 15.5 14.9629 15.5H18.5957C18.9473 15.5 19.2012 15.7734 19.2012 16.1152C19.2012 16.4473 18.9473 16.7012 18.5957 16.7012H14.9629Z"/>
</svg>
