<svg viewBox="0 0 27 23" fill="currentColor" xmlns="http://www.w3.org/2000/svg">
<path d="M1.59961 11.083L1.62598 9.43066C3.38379 10.1279 5.25293 10.6436 7.2334 10.9775C9.21973 11.3057 11.3086 11.4697 13.5 11.4697C15.6914 11.4697 17.7773 11.3057 19.7578 10.9775C21.7441 10.6436 23.6162 10.1367 25.374 9.45703L25.4004 11.083C23.5723 11.7275 21.6621 12.2051 19.6699 12.5156C17.6777 12.8203 15.6211 12.9727 13.5 12.9727C11.3789 12.9727 9.32227 12.8203 7.33008 12.5156C5.33789 12.2051 3.42773 11.7275 1.59961 11.083ZM11.7598 14.9766C11.3789 14.9766 11.083 14.874 10.8721 14.6689C10.6611 14.458 10.5557 14.1621 10.5557 13.7812V12.1641H16.4443V13.7812C16.4443 14.1621 16.3389 14.458 16.1279 14.6689C15.917 14.874 15.6211 14.9766 15.2402 14.9766H11.7598ZM3.87598 22.5264C2.76855 22.5264 1.93652 22.2539 1.37988 21.709C0.823242 21.1641 0.544922 20.3408 0.544922 19.2393V8.10352C0.544922 6.99609 0.823242 6.16992 1.37988 5.625C1.93652 5.08008 2.76855 4.80762 3.87598 4.80762H23.124C24.2373 4.80762 25.0693 5.08008 25.6201 5.625C26.1768 6.16992 26.4551 6.99609 26.4551 8.10352V19.2393C26.4551 20.3408 26.1768 21.1641 25.6201 21.709C25.0693 22.2539 24.2373 22.5264 23.124 22.5264H3.87598ZM3.89355 20.9795H23.1064C23.7041 20.9795 24.1523 20.8301 24.4512 20.5312C24.75 20.2383 24.8994 19.7842 24.8994 19.1689V8.17383C24.8994 7.55859 24.75 7.10156 24.4512 6.80273C24.1523 6.50391 23.7041 6.35449 23.1064 6.35449H3.89355C3.30176 6.35449 2.85352 6.50391 2.54883 6.80273C2.25 7.10156 2.10059 7.55859 2.10059 8.17383V19.1689C2.10059 19.7842 2.25 20.2383 2.54883 20.5312C2.85352 20.8301 3.30176 20.9795 3.89355 20.9795ZM7.85742 5.66895V3.68262C7.85742 2.7041 8.12402 1.97754 8.65723 1.50293C9.19629 1.02246 9.92285 0.782227 10.8369 0.782227H16.1631C17.1182 0.782227 17.8535 1.02246 18.3691 1.50293C18.8848 1.97754 19.1426 2.7041 19.1426 3.68262V5.65137H17.6396V3.57715C17.6396 3.1377 17.5137 2.80078 17.2617 2.56641C17.0098 2.32617 16.6523 2.20605 16.1895 2.20605H10.8018C10.3447 2.20605 9.99023 2.32617 9.73828 2.56641C9.48633 2.80078 9.36035 3.1377 9.36035 3.57715V5.66895H7.85742Z"/>
</svg>
