<svg viewBox="0 0 20 19" fill="currentColor" xmlns="http://www.w3.org/2000/svg">
<path d="M3.55664 18.9531C1.51562 18.9531 0.490234 17.9473 0.490234 15.9258V4.00195C0.490234 1.98047 1.51562 0.974609 3.55664 0.974609H16.8965C18.9375 0.974609 19.9531 1.99023 19.9531 4.00195V15.9258C19.9531 17.9375 18.9375 18.9531 16.8965 18.9531H3.55664ZM3.41016 17.3809H17.0234C17.8926 17.3809 18.3809 16.9219 18.3809 16.0137V6.80469C18.3809 5.90625 17.8926 5.4375 17.0234 5.4375H3.41016C2.54102 5.4375 2.0625 5.90625 2.0625 6.80469V16.0137C2.0625 16.9219 2.54102 17.3809 3.41016 17.3809ZM8.32227 8.94336C7.98047 8.94336 7.86328 8.8457 7.86328 8.50391V7.92773C7.86328 7.58594 7.98047 7.47852 8.32227 7.47852H8.89844C9.24023 7.47852 9.34766 7.58594 9.34766 7.92773V8.50391C9.34766 8.8457 9.24023 8.94336 8.89844 8.94336H8.32227ZM11.5645 8.94336C11.2227 8.94336 11.1055 8.8457 11.1055 8.50391V7.92773C11.1055 7.58594 11.2227 7.47852 11.5645 7.47852H12.1406C12.4824 7.47852 12.5996 7.58594 12.5996 7.92773V8.50391C12.5996 8.8457 12.4824 8.94336 12.1406 8.94336H11.5645ZM14.8066 8.94336C14.4648 8.94336 14.3574 8.8457 14.3574 8.50391V7.92773C14.3574 7.58594 14.4648 7.47852 14.8066 7.47852H15.3828C15.7246 7.47852 15.8418 7.58594 15.8418 7.92773V8.50391C15.8418 8.8457 15.7246 8.94336 15.3828 8.94336H14.8066ZM5.08008 12.1367C4.72852 12.1367 4.62109 12.0391 4.62109 11.6973V11.1211C4.62109 10.7793 4.72852 10.6816 5.08008 10.6816H5.64648C5.99805 10.6816 6.10547 10.7793 6.10547 11.1211V11.6973C6.10547 12.0391 5.99805 12.1367 5.64648 12.1367H5.08008ZM8.32227 12.1367C7.98047 12.1367 7.86328 12.0391 7.86328 11.6973V11.1211C7.86328 10.7793 7.98047 10.6816 8.32227 10.6816H8.89844C9.24023 10.6816 9.34766 10.7793 9.34766 11.1211V11.6973C9.34766 12.0391 9.24023 12.1367 8.89844 12.1367H8.32227ZM11.5645 12.1367C11.2227 12.1367 11.1055 12.0391 11.1055 11.6973V11.1211C11.1055 10.7793 11.2227 10.6816 11.5645 10.6816H12.1406C12.4824 10.6816 12.5996 10.7793 12.5996 11.1211V11.6973C12.5996 12.0391 12.4824 12.1367 12.1406 12.1367H11.5645ZM14.8066 12.1367C14.4648 12.1367 14.3574 12.0391 14.3574 11.6973V11.1211C14.3574 10.7793 14.4648 10.6816 14.8066 10.6816H15.3828C15.7246 10.6816 15.8418 10.7793 15.8418 11.1211V11.6973C15.8418 12.0391 15.7246 12.1367 15.3828 12.1367H14.8066ZM5.08008 15.3398C4.72852 15.3398 4.62109 15.2324 4.62109 14.8906V14.3145C4.62109 13.9727 4.72852 13.875 5.08008 13.875H5.64648C5.99805 13.875 6.10547 13.9727 6.10547 14.3145V14.8906C6.10547 15.2324 5.99805 15.3398 5.64648 15.3398H5.08008ZM8.32227 15.3398C7.98047 15.3398 7.86328 15.2324 7.86328 14.8906V14.3145C7.86328 13.9727 7.98047 13.875 8.32227 13.875H8.89844C9.24023 13.875 9.34766 13.9727 9.34766 14.3145V14.8906C9.34766 15.2324 9.24023 15.3398 8.89844 15.3398H8.32227ZM11.5645 15.3398C11.2227 15.3398 11.1055 15.2324 11.1055 14.8906V14.3145C11.1055 13.9727 11.2227 13.875 11.5645 13.875H12.1406C12.4824 13.875 12.5996 13.9727 12.5996 14.3145V14.8906C12.5996 15.2324 12.4824 15.3398 12.1406 15.3398H11.5645Z"/>
</svg>
