<svg viewBox="0 0 40 19" fill="currentColor" xmlns="http://www.w3.org/2000/svg">
<path d="M9.02539 9.94922C6.70117 9.94922 4.80664 7.89844 4.80664 5.38867C4.79688 2.9082 6.70117 0.90625 9.02539 0.90625C11.3691 0.90625 13.2441 2.86914 13.2441 5.36914C13.2441 7.88867 11.3398 9.94922 9.02539 9.94922ZM19.9727 9.94922C17.6484 9.94922 15.7637 7.89844 15.7539 5.38867C15.7441 2.9082 17.6484 0.90625 19.9727 0.90625C22.3164 0.90625 24.1914 2.86914 24.1914 5.36914C24.1914 7.88867 22.2969 9.94922 19.9727 9.94922ZM30.9199 9.94922C28.6055 9.94922 26.7109 7.89844 26.7012 5.38867C26.7012 2.9082 28.6055 0.90625 30.9199 0.90625C33.2637 0.90625 35.1387 2.86914 35.1387 5.36914C35.1387 7.88867 33.2441 9.94922 30.9199 9.94922ZM9.02539 8.47461C10.4609 8.47461 11.6719 7.09766 11.6719 5.36914C11.6719 3.66016 10.4805 2.38086 9.02539 2.38086C7.57031 2.38086 6.36914 3.68945 6.37891 5.38867C6.37891 7.11719 7.58984 8.47461 9.02539 8.47461ZM19.9727 8.47461C21.4082 8.47461 22.6191 7.09766 22.6191 5.36914C22.6191 3.66016 21.4277 2.38086 19.9727 2.38086C18.5176 2.38086 17.3164 3.68945 17.3262 5.38867C17.3262 7.11719 18.5469 8.47461 19.9727 8.47461ZM30.9199 8.47461C32.3652 8.47461 33.5664 7.09766 33.5664 5.36914C33.5664 3.66016 32.375 2.38086 30.9199 2.38086C29.4746 2.38086 28.2734 3.68945 28.2734 5.38867C28.2734 7.11719 29.4941 8.47461 30.9199 8.47461ZM2.88281 18.9922C1.26172 18.9922 0.490234 18.5039 0.490234 17.4297C0.490234 14.8711 3.72266 11.1699 9.02539 11.1699C14.3184 11.1699 17.5508 14.8711 17.5508 17.4297C17.5508 18.5039 16.7793 18.9922 15.1582 18.9922H2.88281ZM19.9629 11.1699C25.2656 11.1699 28.498 14.8711 28.498 17.4297C28.498 18.5039 27.7266 18.9922 26.0957 18.9922H18.3418C18.6543 18.543 18.752 18.0449 18.7617 17.5176H26.5645C26.8184 17.5176 26.9258 17.4492 26.9258 17.2441C26.9258 15.6328 24.4453 12.6445 19.9629 12.6445C18.8105 12.6445 17.7852 12.8594 16.916 13.1914C16.5547 12.8008 16.1348 12.4297 15.6855 12.0977C16.8965 11.5312 18.332 11.1699 19.9629 11.1699ZM30.9199 11.1699C36.2227 11.1699 39.4551 14.8711 39.4551 17.4297C39.4551 18.5039 38.6836 18.9922 37.0527 18.9922H29.2793C29.6016 18.543 29.6992 18.0449 29.709 17.5176H37.5215C37.7754 17.5176 37.8828 17.4492 37.8828 17.2441C37.8828 15.6328 35.4023 12.6445 30.9199 12.6445C29.7676 12.6445 28.7324 12.8594 27.8633 13.2012C27.502 12.8008 27.0918 12.4395 26.6328 12.1074C27.8438 11.5312 29.2891 11.1699 30.9199 11.1699ZM2.42383 17.5176H15.627C15.8809 17.5176 15.9785 17.4492 15.9785 17.2441C15.9785 15.6328 13.498 12.6445 9.02539 12.6445C4.54297 12.6445 2.0625 15.6328 2.0625 17.2441C2.0625 17.4492 2.16992 17.5176 2.42383 17.5176Z"/>
</svg>
