<svg viewBox="0 0 27 30" fill="currentColor" xmlns="http://www.w3.org/2000/svg">
<path d="M12.6362 25.6377C5.83691 25.6377 0.185059 19.9858 0.185059 13.1865C0.185059 6.375 5.82471 0.735352 12.624 0.735352C19.4355 0.735352 25.0874 6.375 25.0874 13.1865C25.0874 19.9858 19.4478 25.6377 12.6362 25.6377ZM12.6362 23.5625C18.3979 23.5625 23.0122 18.9482 23.0122 13.1865C23.0122 7.4248 18.3857 2.81055 12.624 2.81055C6.8623 2.81055 2.27246 7.4248 2.27246 13.1865C2.27246 18.9482 6.87451 23.5625 12.6362 23.5625ZM6.93555 14.9443C5.95898 14.9443 5.16553 14.1509 5.16553 13.1743C5.16553 12.1978 5.95898 11.4043 6.93555 11.4043C7.8877 11.4043 8.69336 12.1978 8.69336 13.1743C8.69336 14.1509 7.8999 14.9443 6.93555 14.9443ZM12.624 14.9443C11.6475 14.9443 10.854 14.1509 10.854 13.1743C10.854 12.1978 11.6475 11.4043 12.624 11.4043C13.6006 11.4043 14.394 12.1978 14.394 13.1743C14.394 14.1509 13.6006 14.9443 12.624 14.9443ZM18.3247 14.9443C17.3481 14.9443 16.5547 14.1509 16.5547 13.1743C16.5547 12.1978 17.3481 11.4043 18.3247 11.4043C19.2891 11.4043 20.0947 12.1978 20.0947 13.1743C20.0947 14.1509 19.2891 14.9443 18.3247 14.9443Z" fill="black" style="fill:black;fill-opacity:1;"/>
</svg>
