<svg viewBox="0 0 34 31" fill="currentColor" xmlns="http://www.w3.org/2000/svg">
<path d="M6.97949 30.7754C5.4707 30.7754 5.00195 29.501 5.77832 28.4756C6.4375 27.6113 7.66797 25.8828 8.32715 24.6084C3.69824 22.4697 0.62207 18.207 0.62207 13.4023C0.62207 6.03418 8.00488 0.0869141 17.2334 0.0869141C26.4619 0.0869141 33.8447 6.03418 33.8447 13.4023C33.8447 21.0781 26.1836 26.9375 15.9736 26.6592C13 28.7832 8.95703 30.7754 6.97949 30.7754ZM8.51758 28.3438C9.85059 27.8018 12.458 26.1904 14.2598 24.8867C14.8164 24.4473 15.2852 24.2568 15.9004 24.2568C16.4863 24.2715 16.9404 24.2861 17.2334 24.2861C25.1436 24.2861 31.4277 19.3936 31.4277 13.4023C31.4277 7.39648 25.1436 2.50391 17.2334 2.50391C9.33789 2.50391 3.05371 7.39648 3.05371 13.4023C3.05371 17.2988 5.69043 20.7119 10.29 22.8506C11.2275 23.29 11.3301 23.9639 10.9199 24.7256C10.4219 25.6631 9.25 27.1865 8.42969 28.1973C8.35645 28.2998 8.40039 28.3877 8.51758 28.3438Z"/>
</svg>
