<svg viewBox="0 0 23 20" fill="currentColor" xmlns="http://www.w3.org/2000/svg">
<path d="M4.69922 8.52344C2.4043 8.52344 0.490234 6.61914 0.490234 4.32422C0.490234 2.01953 2.39453 0.105469 4.69922 0.105469C6.99414 0.105469 8.9082 2.01953 8.9082 4.32422C8.9082 6.61914 6.99414 8.52344 4.69922 8.52344ZM4.20117 6.58008C4.41602 6.58008 4.5918 6.48242 4.69922 6.30664L6.74023 3.10352C6.82812 2.95703 6.86719 2.83984 6.86719 2.70312C6.86719 2.45898 6.63281 2.24414 6.35938 2.24414C6.18359 2.24414 6.03711 2.3418 5.91992 2.51758L4.18164 5.31055L3.41992 4.34375C3.29297 4.17773 3.15625 4.09961 2.9707 4.09961C2.70703 4.09961 2.49219 4.32422 2.49219 4.60742C2.49219 4.76367 2.52148 4.88086 2.61914 4.98828L3.71289 6.30664C3.85938 6.47266 3.99609 6.58008 4.20117 6.58008ZM11.8281 5.06641C11.418 5.06641 11.0859 4.74414 11.0859 4.32422C11.0859 3.91406 11.418 3.5918 11.8281 3.5918H21.6328C22.043 3.5918 22.3848 3.91406 22.3848 4.32422C22.3848 4.74414 22.043 5.06641 21.6328 5.06641H11.8281ZM4.69922 19.832C2.4043 19.832 0.490234 17.918 0.490234 15.623C0.490234 13.3184 2.39453 11.4043 4.69922 11.4043C6.99414 11.4043 8.9082 13.3086 8.9082 15.623C8.9082 17.918 6.99414 19.832 4.69922 19.832ZM4.69922 18.4062C6.20312 18.4062 7.48242 17.127 7.48242 15.623C7.48242 14.1094 6.20312 12.8301 4.69922 12.8301C3.19531 12.8301 1.91602 14.1094 1.91602 15.623C1.91602 17.127 3.18555 18.4062 4.69922 18.4062ZM11.8281 16.3555C11.418 16.3555 11.0859 16.0332 11.0859 15.623C11.0859 15.2031 11.418 14.8809 11.8281 14.8809H21.6328C22.043 14.8809 22.3848 15.2031 22.3848 15.623C22.3848 16.0332 22.043 16.3555 21.6328 16.3555H11.8281Z"/>
</svg>
