<svg viewBox="0 0 26 26" fill="currentColor" xmlns="http://www.w3.org/2000/svg">
<path d="M12.917 25.9185C5.93457 25.9185 0.185059 20.1689 0.185059 13.1865C0.185059 6.21631 5.93457 0.45459 12.9048 0.45459C19.8872 0.45459 25.6489 6.21631 25.6489 13.1865C25.6489 20.1689 19.8994 25.9185 12.917 25.9185ZM12.917 23.123C18.4224 23.123 22.8535 18.6919 22.8535 13.1865C22.8535 7.68115 18.4224 3.25 12.9048 3.25C7.39941 3.25 2.99268 7.68115 2.99268 13.1865C2.99268 18.6919 7.41162 23.123 12.917 23.123ZM9.01074 18.2891C8.33936 18.2891 7.81445 17.7642 7.81445 17.0928C7.81445 16.7754 7.94873 16.4824 8.18066 16.2627L11.2202 13.2109L8.18066 10.147C7.94873 9.92725 7.81445 9.63428 7.81445 9.31689C7.81445 8.64551 8.33936 8.13281 9.01074 8.13281C9.35254 8.13281 9.6333 8.24268 9.86523 8.48682L12.9048 11.5264L15.981 8.47461C16.2251 8.23047 16.4937 8.12061 16.8354 8.12061C17.4946 8.12061 18.0195 8.64551 18.0195 9.31689C18.0195 9.62207 17.9097 9.90283 17.6655 10.1348L14.6138 13.2109L17.6533 16.2505C17.8853 16.4824 18.0195 16.7632 18.0195 17.0928C18.0195 17.7642 17.4946 18.2891 16.8232 18.2891C16.4692 18.2891 16.1763 18.167 15.9565 17.9351L12.9048 14.8955L9.87744 17.9351C9.64551 18.167 9.35254 18.2891 9.01074 18.2891Z"/>
</svg>
