<svg viewBox="0 0 29 24" fill="currentColor" xmlns="http://www.w3.org/2000/svg">
<path d="M15.1777 19.5762C13.1367 19.5762 11.7988 18.7754 11.2227 17.2812L7.90234 20.2305C7.30664 20.748 6.97461 21.002 6.49609 21.002C5.8125 21.002 5.43164 20.5234 5.43164 19.7715V17.2227H4.96289C2.05273 17.2227 0.490234 15.6211 0.490234 12.7598V5.26953C0.490234 2.4082 2.05273 0.796875 4.96289 0.796875H17.541C20.4512 0.796875 22.0137 2.4082 22.0137 5.26953V5.72852H24.25C27.0625 5.72852 28.5371 7.24219 28.5371 10.0156V15.2988C28.5371 18.0625 27.0625 19.5762 24.25 19.5762H24.0449V21.9199C24.0449 22.6621 23.6641 23.1406 22.9902 23.1406C22.5215 23.1406 22.1992 22.877 21.6035 22.3691L18.3418 19.5762H15.1777ZM6.89648 16.3926V19.2148L10.0215 16.1191C10.3145 15.8164 10.5488 15.6992 10.9004 15.6699C10.9004 15.5527 10.8906 15.4258 10.8906 15.2988V10.0156C10.8906 7.24219 12.3652 5.72852 15.1777 5.72852H20.4414V5.2793C20.4414 3.375 19.5039 2.36914 17.541 2.36914H4.96289C2.99023 2.36914 2.0625 3.375 2.0625 5.2793V12.75C2.0625 14.6543 2.99023 15.6504 4.96289 15.6504H6.16406C6.69141 15.6504 6.89648 15.8555 6.89648 16.3926ZM15.207 18.0039H18.2832C18.6836 18.0039 18.957 18.1113 19.2793 18.4141L22.5801 21.3633V18.8047C22.5801 18.2578 22.9121 18.0039 23.332 18.0039H24.2305C26.1348 18.0039 26.9648 17.1055 26.9648 15.2695V10.0352C26.9648 8.20898 26.1348 7.30078 24.2305 7.30078H15.207C13.293 7.30078 12.4727 8.20898 12.4727 10.0352V15.2793C12.4727 17.1055 13.293 18.0039 15.207 18.0039ZM16.2129 11.627C15.7832 11.627 15.4805 11.3145 15.4805 10.9043C15.4805 10.4844 15.7832 10.1719 16.2129 10.1719H23.2832C23.7031 10.1719 24.0156 10.4844 24.0156 10.9043C24.0156 11.3145 23.7031 11.627 23.2832 11.627H16.2129ZM16.2129 15.2402C15.7832 15.2402 15.4805 14.9473 15.4805 14.5273C15.4805 14.1172 15.7832 13.7852 16.2129 13.7852H21.3887C21.7988 13.7852 22.1309 14.1172 22.1309 14.5273C22.1309 14.9473 21.7988 15.2402 21.3887 15.2402H16.2129Z"/>
</svg>
