<svg viewBox="0 0 13 12" fill="currentColor" xmlns="http://www.w3.org/2000/svg">
<path d="M3.04883 5.3125C1.63672 5.3125 0.494141 4.1582 0.494141 2.75781C0.494141 1.35742 1.63672 0.208984 3.04883 0.208984C4.44922 0.208984 5.60352 1.35742 5.60352 2.75781C5.60352 4.1582 4.44922 5.3125 3.04883 5.3125ZM9.5 5.3125C8.08789 5.3125 6.94531 4.1582 6.94531 2.75781C6.94531 1.35742 8.08789 0.208984 9.5 0.208984C10.9004 0.208984 12.0488 1.35742 12.0488 2.75781C12.0488 4.1582 10.9004 5.3125 9.5 5.3125ZM3.04883 11.3359C1.63672 11.3359 0.494141 10.1816 0.494141 8.78125C0.494141 7.38672 1.63672 6.23242 3.04883 6.23242C4.44922 6.23242 5.60352 7.38672 5.60352 8.78125C5.60352 10.1816 4.44922 11.3359 3.04883 11.3359ZM9.5 11.3359C8.08789 11.3359 6.94531 10.1816 6.94531 8.78125C6.94531 7.38672 8.08789 6.23242 9.5 6.23242C10.9004 6.23242 12.0488 7.38672 12.0488 8.78125C12.0488 10.1816 10.9004 11.3359 9.5 11.3359Z"/>
</svg>
