<svg viewBox="0 0 30 31" fill="currentColor" xmlns="http://www.w3.org/2000/svg">
<path d="M15.3145 30.1162C7.27246 30.1162 0.62207 23.4658 0.62207 15.4238C0.62207 7.36719 7.25781 0.731445 15.2998 0.731445C23.3564 0.731445 30.0068 7.36719 30.0068 15.4238C30.0068 23.4658 23.3564 30.1162 15.3145 30.1162ZM15.3145 28.2119C22.4043 28.2119 28.1172 22.499 28.1172 15.4238C28.1172 8.33398 22.3896 2.62109 15.2998 2.62109C8.22461 2.62109 2.52637 8.33398 2.52637 15.4238C2.52637 22.499 8.22461 28.2119 15.3145 28.2119ZM9.03027 22.5723C7.14062 20.6973 7.14062 17.8994 9.05957 15.9658L17.1016 7.92383C18.5518 6.48828 20.5586 6.45898 21.9502 7.82129C23.3271 9.19824 23.2686 11.1904 21.8184 12.6553L13.9521 20.5215C13.0879 21.3857 11.8574 21.415 11.0371 20.5801C10.2314 19.7598 10.29 18.4854 11.1104 17.6504L16.7207 12.04C16.9844 11.7617 17.3799 11.7471 17.6729 12.0254C17.9512 12.2891 17.9219 12.6846 17.6436 12.9775L12.0479 18.5732C11.7109 18.8809 11.7109 19.3057 12.0332 19.5986C12.3408 19.877 12.7217 19.8916 13.0439 19.5547L20.8809 11.7178C21.7744 10.8242 21.8184 9.6084 20.998 8.78809C20.1924 7.99707 18.9473 8.01172 18.0684 8.90527L10.0557 16.918C8.66406 18.3096 8.64941 20.2578 10.0264 21.6055C11.374 22.9385 13.3223 22.9531 14.6992 21.5762L20.7051 15.5703C20.9688 15.3066 21.4082 15.292 21.6865 15.541C21.9502 15.8047 21.9209 16.2734 21.6719 16.5225L15.6367 22.5576C13.7031 24.4619 10.9932 24.5059 9.03027 22.5723Z"/>
</svg>
