<svg viewBox="0 0 21 22" fill="currentColor" xmlns="http://www.w3.org/2000/svg">
<path d="M0.748047 14.4355C0.748047 11.2129 2.62305 8.58594 4.94727 8.58594H6.73438C8.96094 5.87109 10.3281 3.89844 11.4707 1.70117C12.0859 0.529297 12.7109 0.0507812 13.6387 0.0507812C14.8984 0.0507812 15.8164 0.988281 15.8164 2.30664C15.8164 4.2207 14.2148 6.60352 14.2148 7.61914C14.2148 7.80469 14.3516 7.90234 14.5664 7.90234H18.1309C19.5371 7.90234 20.6406 9.01562 20.6406 10.4219C20.6406 10.9883 20.4844 11.5254 20.2207 11.9062C20.4062 12.248 20.5137 12.7168 20.5137 13.1562C20.5137 13.8398 20.2695 14.4941 19.8301 14.9434C19.9668 15.2461 20.0449 15.627 20.0449 16.0078C20.0449 16.7891 19.6836 17.502 19.0391 17.9902C19.0977 18.2051 19.1367 18.4199 19.1367 18.6641C19.1367 19.8164 18.3164 20.7246 17.0078 21.0469C16.334 21.2129 15.3184 21.2812 14.1465 21.2812H12.8379C11.1582 21.2812 9.6543 20.9004 8.41406 20.2461H5.29883C2.80859 20.2461 0.748047 17.5898 0.748047 14.4355ZM6.24609 14.3867C6.24609 17.5605 8.92188 19.8457 12.9453 19.8457H14.1562C15.2207 19.8457 16.1094 19.7871 16.666 19.6504C17.3496 19.4746 17.6816 19.1133 17.6816 18.6641C17.6816 18.4199 17.6523 18.332 17.418 17.7461C17.3301 17.541 17.3789 17.3652 17.5938 17.2383C18.2773 16.8867 18.5996 16.5059 18.5996 16.0078C18.5996 15.666 18.4824 15.4609 18.2383 15.0215C18.1016 14.7285 18.1992 14.4844 18.4336 14.2988C18.8633 13.9766 19.0684 13.5957 19.0684 13.1562C19.0684 12.7852 18.9414 12.5117 18.6387 12.0625C18.4922 11.877 18.5117 11.6816 18.6875 11.5254C19.0488 11.1543 19.1953 10.8711 19.1953 10.4219C19.1953 9.80664 18.7363 9.34766 18.1309 9.34766H14.7715C13.6484 9.34766 12.7695 8.69336 12.7695 7.61914C12.7695 6.13477 14.3711 3.83008 14.3711 2.30664C14.3711 1.7793 14.0977 1.49609 13.6973 1.49609C13.3555 1.49609 13.1211 1.65234 12.7695 2.36523C11.3535 5.17773 9.39062 7.44336 7.97461 9.33789C6.70508 11.0469 6.24609 12.3457 6.24609 14.3867ZM2.19336 14.4355C2.19336 16.7988 3.64844 18.791 5.29883 18.791H6.54883C5.42578 17.6289 4.80078 16.1055 4.80078 14.3574C4.80078 12.707 5.10352 11.3398 5.79688 10.0312H4.94727C3.50195 10.0312 2.19336 12.0039 2.19336 14.4355Z"/>
</svg>
