<svg viewBox="0 0 39 25" fill="currentColor" xmlns="http://www.w3.org/2000/svg">
<path d="M9.40332 13.7598C8.63574 13.7598 7.93555 13.5547 7.30273 13.1445C6.66992 12.7285 6.16309 12.1748 5.78223 11.4834C5.40723 10.7861 5.21973 10.0127 5.21973 9.16309C5.21973 8.54785 5.32812 7.96777 5.54492 7.42285C5.76758 6.87793 6.06934 6.40039 6.4502 5.99023C6.83691 5.57422 7.28223 5.24902 7.78613 5.01465C8.29004 4.77441 8.8291 4.6543 9.40332 4.6543C9.9834 4.6543 10.5254 4.77148 11.0293 5.00586C11.5391 5.24023 11.9844 5.5625 12.3652 5.97266C12.752 6.38281 13.0508 6.86035 13.2617 7.40527C13.4785 7.94434 13.5869 8.52441 13.5869 9.14551C13.5869 10.001 13.3994 10.7773 13.0244 11.4746C12.6494 12.1719 12.1455 12.7285 11.5127 13.1445C10.8799 13.5547 10.1768 13.7598 9.40332 13.7598ZM9.40332 12.3096C9.90723 12.3096 10.3672 12.1689 10.7832 11.8877C11.1992 11.6064 11.5303 11.2285 11.7764 10.7539C12.0225 10.2734 12.1455 9.7373 12.1455 9.14551C12.1455 8.58301 12.0225 8.07324 11.7764 7.61621C11.5303 7.15332 11.1992 6.78711 10.7832 6.51758C10.3672 6.24219 9.90723 6.10449 9.40332 6.10449C8.90527 6.10449 8.44824 6.24219 8.03223 6.51758C7.62207 6.79297 7.29102 7.16211 7.03906 7.625C6.79297 8.08789 6.66992 8.60059 6.66992 9.16309C6.66992 9.74902 6.79297 10.2793 7.03906 10.7539C7.29102 11.2285 7.62207 11.6064 8.03223 11.8877C8.44824 12.1689 8.90527 12.3096 9.40332 12.3096ZM3.00488 24.0605C2.29004 24.0605 1.75098 23.9111 1.3877 23.6123C1.03027 23.3135 0.851562 22.8623 0.851562 22.2588C0.851562 21.3447 1.06836 20.46 1.50195 19.6045C1.93555 18.749 2.53906 17.9844 3.3125 17.3105C4.08594 16.6309 4.99121 16.0947 6.02832 15.7021C7.06543 15.3037 8.1875 15.1045 9.39453 15.1045C10.0449 15.1045 10.6748 15.1631 11.2842 15.2803C11.8994 15.3975 12.4883 15.5732 13.0508 15.8076C13.6191 16.042 14.1494 16.335 14.6416 16.6865C14.4307 16.8389 14.2344 17 14.0527 17.1699C13.8711 17.3398 13.7012 17.5186 13.543 17.7061C13.1562 17.4541 12.7402 17.2402 12.2949 17.0645C11.8555 16.8887 11.3926 16.7568 10.9062 16.6689C10.4199 16.5811 9.91602 16.5371 9.39453 16.5371C8.43945 16.5371 7.53418 16.6924 6.67871 17.0029C5.8291 17.3076 5.07617 17.7236 4.41992 18.251C3.76367 18.7783 3.24512 19.3789 2.86426 20.0527C2.48926 20.7324 2.30176 21.4414 2.30176 22.1797C2.30176 22.3379 2.33984 22.4492 2.41602 22.5137C2.49219 22.584 2.61816 22.6191 2.79395 22.6191H11.3809C11.3691 22.8184 11.3984 23.0117 11.4688 23.1992C11.5391 23.3867 11.6357 23.5537 11.7588 23.7002C11.8877 23.8525 12.0312 23.9727 12.1895 24.0605H3.00488ZM22.4727 13.6279C21.8047 13.6279 21.1777 13.4932 20.5918 13.2236C20.0117 12.9541 19.502 12.5791 19.0625 12.0986C18.623 11.6182 18.2773 11.0615 18.0254 10.4287C17.7793 9.7959 17.6562 9.11621 17.6562 8.38965C17.6562 7.68066 17.7793 7.01563 18.0254 6.39453C18.2773 5.77344 18.623 5.22852 19.0625 4.75977C19.5078 4.28516 20.0205 3.91602 20.6006 3.65234C21.1865 3.38281 21.8105 3.24805 22.4727 3.24805C23.1348 3.24805 23.7559 3.37988 24.3359 3.64355C24.9219 3.90723 25.4346 4.27344 25.874 4.74219C26.3135 5.21094 26.6562 5.75586 26.9023 6.37695C27.1543 6.99219 27.2803 7.65723 27.2803 8.37207C27.2803 9.09863 27.1543 9.78125 26.9023 10.4199C26.6562 11.0527 26.3135 11.6094 25.874 12.0898C25.4346 12.5703 24.9219 12.9482 24.3359 13.2236C23.7559 13.4932 23.1348 13.6279 22.4727 13.6279ZM22.4727 12.1602C23.0645 12.1602 23.6064 11.9932 24.0986 11.6592C24.5967 11.3193 24.9922 10.8623 25.2852 10.2881C25.5781 9.71387 25.7246 9.0752 25.7246 8.37207C25.7246 7.68066 25.5781 7.05957 25.2852 6.50879C24.9922 5.95801 24.5996 5.52148 24.1074 5.19922C23.6152 4.87695 23.0703 4.71582 22.4727 4.71582C21.875 4.71582 21.3301 4.87988 20.8379 5.20801C20.3457 5.53613 19.9502 5.97852 19.6514 6.53516C19.3584 7.08594 19.2119 7.7041 19.2119 8.38965C19.2119 9.09277 19.3584 9.73145 19.6514 10.3057C19.9502 10.874 20.3457 11.3252 20.8379 11.6592C21.3301 11.9932 21.875 12.1602 22.4727 12.1602ZM15.2129 24.0605C13.4961 24.0605 12.6377 23.4863 12.6377 22.3379C12.6377 21.7461 12.7812 21.1191 13.0684 20.457C13.3613 19.7949 13.7861 19.1504 14.3428 18.5234C14.8994 17.8906 15.5762 17.3193 16.373 16.8096C17.1699 16.2998 18.0781 15.8926 19.0977 15.5879C20.123 15.2773 21.2422 15.1221 22.4551 15.1221C23.6738 15.1221 24.793 15.2773 25.8125 15.5879C26.8379 15.8926 27.749 16.2998 28.5459 16.8096C29.3428 17.3193 30.0195 17.8906 30.5762 18.5234C31.1328 19.1504 31.5547 19.7949 31.8418 20.457C32.1348 21.1191 32.2812 21.7461 32.2812 22.3379C32.2812 23.4863 31.4229 24.0605 29.7061 24.0605H15.2129ZM14.7822 22.5928H30.1367C30.3535 22.5928 30.5059 22.5605 30.5938 22.4961C30.6816 22.4316 30.7256 22.3203 30.7256 22.1621C30.7256 21.752 30.6084 21.2979 30.374 20.7998C30.1396 20.3076 29.7939 19.8154 29.3369 19.3232C28.8799 18.8311 28.3174 18.3799 27.6494 17.9697C26.9814 17.5537 26.2139 17.2227 25.3467 16.9766C24.4795 16.7246 23.5156 16.5986 22.4551 16.5986C21.4004 16.5986 20.4395 16.7246 19.5723 16.9766C18.7051 17.2227 17.9375 17.5537 17.2695 17.9697C16.6016 18.3799 16.0391 18.8311 15.582 19.3232C15.125 19.8154 14.7793 20.3076 14.5449 20.7998C14.3105 21.2979 14.1934 21.752 14.1934 22.1621C14.1934 22.3203 14.2373 22.4316 14.3252 22.4961C14.4131 22.5605 14.5654 22.5928 14.7822 22.5928ZM31.0068 13.0391C30.8135 12.8984 30.7021 12.7227 30.6729 12.5117C30.6494 12.2949 30.7109 12.0869 30.8574 11.8877C31.209 11.3838 31.4785 10.8271 31.666 10.2178C31.8594 9.60254 31.9561 8.94629 31.9561 8.24902C31.9561 7.55176 31.8623 6.89551 31.6748 6.28027C31.4873 5.65918 31.2148 5.10254 30.8574 4.61035C30.7051 4.41113 30.6436 4.20313 30.6729 3.98633C30.7021 3.76953 30.8135 3.59375 31.0068 3.45898C31.1709 3.3418 31.3525 3.30371 31.5518 3.34473C31.751 3.37988 31.918 3.48828 32.0527 3.66992C32.4863 4.24414 32.8291 4.92969 33.0811 5.72656C33.333 6.51758 33.459 7.3584 33.459 8.24902C33.459 9.13379 33.333 9.97461 33.0811 10.7715C32.8291 11.5684 32.4863 12.251 32.0527 12.8193C31.918 13.0068 31.751 13.1182 31.5518 13.1533C31.3525 13.1885 31.1709 13.1504 31.0068 13.0391ZM35.0674 16.001C34.8857 15.8838 34.7832 15.7227 34.7598 15.5176C34.7363 15.3125 34.7949 15.1104 34.9355 14.9111C35.5684 14.0088 36.0635 12.9834 36.4209 11.835C36.7783 10.6865 36.957 9.49121 36.957 8.24902C36.957 7.00098 36.7812 5.80273 36.4297 4.6543C36.0781 3.50586 35.5801 2.4834 34.9355 1.58691C34.7891 1.38184 34.7275 1.17969 34.751 0.980469C34.7803 0.775391 34.8857 0.611328 35.0674 0.488281C35.2432 0.365234 35.4307 0.324219 35.6299 0.365234C35.835 0.400391 36.002 0.511719 36.1309 0.699219C36.6172 1.34375 37.0332 2.07324 37.3789 2.8877C37.7305 3.70215 37.9971 4.56348 38.1787 5.47168C38.3662 6.37988 38.46 7.30566 38.46 8.24902C38.46 9.18652 38.3662 10.1094 38.1787 11.0176C37.9912 11.9258 37.7246 12.7871 37.3789 13.6016C37.0332 14.4102 36.6172 15.1426 36.1309 15.7988C36.002 15.9805 35.835 16.0918 35.6299 16.1328C35.4307 16.168 35.2432 16.124 35.0674 16.001Z"/>
</svg>
