<svg viewBox="0 0 16 16" fill="currentColor" xmlns="http://www.w3.org/2000/svg">
<path d="M7.78174 15.1826C3.70215 15.1826 0.311035 11.7915 0.311035 7.71191C0.311035 3.625 3.69482 0.241211 7.77441 0.241211C11.8613 0.241211 15.2524 3.625 15.2524 7.71191C15.2524 11.7915 11.8687 15.1826 7.78174 15.1826ZM7.78174 13.9375C11.2388 13.9375 14.0073 11.1689 14.0073 7.71191C14.0073 4.25488 11.2314 1.48633 7.77441 1.48633C4.31738 1.48633 1.56348 4.25488 1.56348 7.71191C1.56348 11.1689 4.32471 13.9375 7.78174 13.9375ZM7.71582 5.17773C7.18848 5.17773 6.76367 4.75293 6.76367 4.21826C6.76367 3.68359 7.18848 3.25879 7.71582 3.25879C8.25049 3.25879 8.66797 3.68359 8.66797 4.21826C8.66797 4.75293 8.25049 5.17773 7.71582 5.17773ZM6.5 11.8135C6.19971 11.8135 5.96533 11.5938 5.96533 11.2935C5.96533 11.0078 6.19971 10.7808 6.5 10.7808H7.4082V7.42627H6.62451C6.32422 7.42627 6.08984 7.20654 6.08984 6.90625C6.08984 6.62061 6.32422 6.39355 6.62451 6.39355H8.00146C8.375 6.39355 8.57275 6.65723 8.57275 7.05273V10.7808H9.48096C9.78125 10.7808 10.0156 11.0078 10.0156 11.2935C10.0156 11.5938 9.78125 11.8135 9.48096 11.8135H6.5Z"/>
</svg>
