<svg viewBox="0 0 28 31" fill="currentColor" xmlns="http://www.w3.org/2000/svg">
<path d="M0.105469 23.4805C0.105469 22.0156 1.58496 20.6973 2.85938 19.3936C3.82617 18.3828 4.08984 16.3027 4.20703 14.6182C4.30957 8.84668 5.80371 5.12598 9.7002 3.71973C10.1836 1.80078 11.7656 0.291992 13.9189 0.291992C16.0869 0.291992 17.6543 1.80078 18.1523 3.71973C22.0488 5.12598 23.543 8.84668 23.6455 14.6182C23.7627 16.3027 24.0264 18.3828 24.9932 19.3936C26.2529 20.6973 27.7471 22.0156 27.7471 23.4805C27.7471 24.5498 26.9121 25.2529 25.5352 25.2529H19.3535C19.2363 28.0947 17.0244 30.5557 13.9189 30.5557C10.8281 30.5557 8.61621 28.0801 8.49902 25.2529H2.31738C0.925781 25.2529 0.105469 24.5498 0.105469 23.4805ZM2.94727 23.041H24.8906V22.8652C24.627 22.4404 23.7627 21.5762 22.9863 20.7266C21.9463 19.5547 21.4482 17.665 21.3164 14.8086C21.1992 8.40723 19.2949 6.37109 16.7754 5.68262C16.4092 5.59473 16.2188 5.41895 16.2041 5.03809C16.1455 3.51465 15.2812 2.44531 13.9189 2.44531C12.5713 2.44531 11.6924 3.51465 11.6484 5.03809C11.6338 5.41895 11.4287 5.59473 11.0625 5.68262C8.55762 6.37109 6.65332 8.40723 6.53613 14.8086C6.4043 17.665 5.90625 19.5547 4.85156 20.7266C4.08984 21.5762 3.21094 22.4404 2.94727 22.8652V23.041ZM10.7842 25.2529C10.8867 27.2451 12.1611 28.4902 13.9189 28.4902C15.6914 28.4902 16.9512 27.2451 17.0684 25.2529H10.7842Z"/>
</svg>
