<svg viewBox="0 0 24 19" fill="currentColor" xmlns="http://www.w3.org/2000/svg">
<path d="M3.55664 18.9434C1.51562 18.9434 0.490234 17.9375 0.490234 15.9258V3.99219C0.490234 1.98047 1.51562 0.964844 3.55664 0.964844H20.4512C22.502 0.964844 23.5176 1.98047 23.5176 3.99219V15.9258C23.5176 17.9375 22.502 18.9434 20.4512 18.9434H3.55664ZM3.57617 17.3711H20.4316C21.3984 17.3711 21.9453 16.8535 21.9453 15.8379V4.08008C21.9453 3.06445 21.3984 2.53711 20.4316 2.53711H3.57617C2.59961 2.53711 2.0625 3.06445 2.0625 4.08008V15.8379C2.0625 16.8535 2.59961 17.3711 3.57617 17.3711ZM7.94141 9.91016C6.75977 9.91016 5.80273 8.91406 5.80273 7.57617C5.80273 6.32617 6.75977 5.29102 7.94141 5.29102C9.13281 5.29102 10.0801 6.32617 10.0801 7.57617C10.0801 8.91406 9.13281 9.91992 7.94141 9.91016ZM14.3086 6.73633C13.957 6.73633 13.6934 6.47266 13.6934 6.13086C13.6934 5.79883 13.957 5.53516 14.3086 5.53516H19.6406C19.9824 5.53516 20.2461 5.79883 20.2461 6.13086C20.2461 6.47266 19.9824 6.73633 19.6406 6.73633H14.3086ZM14.3086 10.5645C13.957 10.5645 13.6934 10.291 13.6934 9.94922C13.6934 9.61719 13.957 9.36328 14.3086 9.36328H19.6406C19.9824 9.36328 20.2461 9.61719 20.2461 9.94922C20.2461 10.291 19.9824 10.5645 19.6406 10.5645H14.3086ZM4.13281 14.3828C3.81055 14.3828 3.6543 14.168 3.6543 13.875C3.6543 12.957 5.02148 10.5938 7.94141 10.5938C10.8613 10.5938 12.2383 12.957 12.2383 13.875C12.2383 14.168 12.082 14.3828 11.7598 14.3828H4.13281ZM14.3086 14.3828C13.957 14.3828 13.6934 14.1289 13.6934 13.7969C13.6934 13.4551 13.957 13.1816 14.3086 13.1816H19.6406C19.9824 13.1816 20.2461 13.4551 20.2461 13.7969C20.2461 14.1289 19.9824 14.3828 19.6406 14.3828H14.3086Z"/>
</svg>
