<svg viewBox="0 0 21 21" fill="currentColor" xmlns="http://www.w3.org/2000/svg">
<path d="M10.709 20.9102C5.26953 20.9102 0.748047 16.3887 0.748047 10.9492C0.748047 5.5 5.25977 0.988281 10.6992 0.988281C16.1484 0.988281 20.6699 5.5 20.6699 10.9492C20.6699 16.3887 16.1582 20.9102 10.709 20.9102ZM10.709 19.25C15.3184 19.25 19.0098 15.5586 19.0098 10.9492C19.0098 6.33984 15.3086 2.64844 10.6992 2.64844C6.08984 2.64844 2.41797 6.33984 2.41797 10.9492C2.41797 15.5586 6.09961 19.25 10.709 19.25ZM6.17773 10.9492C6.17773 10.4609 6.50977 10.1191 7.00781 10.1191H9.87891V7.24805C9.87891 6.75 10.2109 6.4082 10.6895 6.4082C11.1777 6.4082 11.5195 6.75 11.5195 7.24805V10.1191H14.4004C14.8887 10.1191 15.2305 10.4609 15.2305 10.9492C15.2305 11.4277 14.8887 11.75 14.4004 11.75H11.5195V14.6309C11.5195 15.1289 11.1777 15.4609 10.6895 15.4609C10.2109 15.4609 9.87891 15.1191 9.87891 14.6309V11.75H7.00781C6.50977 11.75 6.17773 11.4277 6.17773 10.9492Z"/>
</svg>
