<svg viewBox="0 0 23 24" fill="currentColor" xmlns="http://www.w3.org/2000/svg">
<path d="M11.4912 23.0977C10.2373 23.0977 9.03906 22.9014 7.89648 22.5088C6.75977 22.1221 5.71387 21.5771 4.75879 20.874C3.80371 20.1709 2.97461 19.3418 2.27148 18.3867C1.56836 17.4316 1.02051 16.3828 0.62793 15.2402C0.241211 14.0977 0.0478516 12.9023 0.0478516 11.6543C0.0478516 10.4004 0.241211 9.20508 0.62793 8.06836C1.01465 6.92578 1.55957 5.87695 2.2627 4.92188C2.97168 3.9668 3.80078 3.1377 4.75 2.43457C5.70508 1.72559 6.75098 1.17773 7.8877 0.791016C9.03027 0.398437 10.2285 0.202148 11.4824 0.202148C12.7363 0.202148 13.9346 0.398437 15.0771 0.791016C16.2197 1.17773 17.2686 1.72559 18.2236 2.43457C19.1787 3.1377 20.0078 3.9668 20.7109 4.92188C21.4199 5.87695 21.9678 6.92578 22.3545 8.06836C22.7471 9.20508 22.9434 10.4004 22.9434 11.6543C22.9434 12.9023 22.7471 14.0977 22.3545 15.2402C21.9678 16.3828 21.4199 17.4316 20.7109 18.3867C20.0078 19.3418 19.1787 20.1709 18.2236 20.874C17.2686 21.5771 16.2197 22.1221 15.0771 22.5088C13.9404 22.9014 12.7451 23.0977 11.4912 23.0977ZM11.4912 21.4629C12.5811 21.4629 13.6152 21.2959 14.5938 20.9619C15.5781 20.6338 16.4775 20.1709 17.292 19.5732C18.1123 18.9756 18.8213 18.2695 19.4189 17.4551C20.0166 16.6348 20.4795 15.7354 20.8076 14.7568C21.1357 13.7725 21.2998 12.7383 21.2998 11.6543C21.2998 10.5645 21.1357 9.53027 20.8076 8.55176C20.4795 7.56738 20.0137 6.66797 19.4102 5.85352C18.8125 5.0332 18.1035 4.32422 17.2832 3.72656C16.4688 3.12891 15.5693 2.66602 14.585 2.33789C13.6064 2.00977 12.5723 1.8457 11.4824 1.8457C10.3984 1.8457 9.36426 2.00977 8.37988 2.33789C7.40137 2.66602 6.50488 3.12891 5.69043 3.72656C4.87598 4.32422 4.16992 5.0332 3.57227 5.85352C2.97461 6.66797 2.51172 7.56738 2.18359 8.55176C1.85547 9.53027 1.69141 10.5645 1.69141 11.6543C1.69141 12.7383 1.85547 13.7725 2.18359 14.7568C2.51172 15.7354 2.97461 16.6348 3.57227 17.4551C4.17578 18.2695 4.88477 18.9756 5.69922 19.5732C6.51367 20.1709 7.41016 20.6338 8.38867 20.9619C9.37305 21.2959 10.4072 21.4629 11.4912 21.4629ZM19.2168 19.0811C18.5254 19.7607 17.7314 20.3408 16.835 20.8213C15.9385 21.3076 15.0244 21.6797 14.0928 21.9375C13.1611 22.1953 12.2939 22.3242 11.4912 22.3242C10.7002 22.3242 9.83301 22.1924 8.88965 21.9287C7.95215 21.6709 7.03223 21.2988 6.12988 20.8125C5.22754 20.332 4.43945 19.7549 3.76562 19.0811L3.79199 18.958C3.94434 18.5479 4.2373 18.1377 4.6709 17.7275C5.10449 17.3174 5.65527 16.9424 6.32324 16.6025C6.99707 16.2627 7.76758 15.9902 8.63477 15.7852C9.50781 15.5742 10.46 15.4688 11.4912 15.4688C12.5225 15.4688 13.4717 15.5742 14.3389 15.7852C15.2119 15.9902 15.9824 16.2656 16.6504 16.6113C17.3242 16.9512 17.8779 17.3291 18.3115 17.7451C18.7451 18.1553 19.0381 18.5654 19.1904 18.9756L19.2168 19.0811ZM11.4912 13.5439C10.7646 13.5381 10.1084 13.3477 9.52246 12.9727C8.93652 12.5977 8.4707 12.0908 8.125 11.4521C7.78516 10.8076 7.61523 10.0781 7.61523 9.26367C7.60938 8.50195 7.7793 7.80469 8.125 7.17188C8.4707 6.53906 8.93652 6.03223 9.52246 5.65137C10.1143 5.27051 10.7705 5.08008 11.4912 5.08008C12.2119 5.08008 12.8652 5.27051 13.4512 5.65137C14.0371 6.03223 14.5029 6.53906 14.8486 7.17188C15.1943 7.80469 15.3672 8.50195 15.3672 9.26367C15.3672 10.0781 15.1943 10.8076 14.8486 11.4521C14.5088 12.0967 14.0459 12.6094 13.46 12.9902C12.874 13.3652 12.2178 13.5498 11.4912 13.5439Z"/>
</svg>
