<svg viewBox="0 0 29 30" fill="currentColor" xmlns="http://www.w3.org/2000/svg">
<path d="M0.369141 12.6699C0.369141 6.22461 5.61328 0.980469 12.0586 0.980469C18.5039 0.980469 23.748 6.22461 23.748 12.6699C23.748 15.3359 22.8545 17.7822 21.3457 19.7451L28.5088 26.9521C28.8164 27.2598 28.9922 27.6846 28.9922 28.1533C28.9922 29.1348 28.3037 29.8818 27.3076 29.8818C26.8389 29.8818 26.3994 29.7207 26.0625 29.3838L18.8555 22.1621C16.9365 23.5391 14.6074 24.3594 12.0586 24.3594C5.61328 24.3594 0.369141 19.1152 0.369141 12.6699ZM2.87402 12.6699C2.87402 17.7383 6.99023 21.8545 12.0586 21.8545C17.127 21.8545 21.2432 17.7383 21.2432 12.6699C21.2432 7.60156 17.127 3.48535 12.0586 3.48535C6.99023 3.48535 2.87402 7.60156 2.87402 12.6699Z"/>
</svg>
