<svg viewBox="0 0 22 18" fill="currentColor" xmlns="http://www.w3.org/2000/svg">
<path d="M11.8281 17.9043C11.1641 17.9043 10.6758 17.416 10.6758 16.7617V13.0312H10.3926C6.61328 13.0312 4.2207 13.9883 2.52148 17.1816C2.17969 17.8066 1.73047 17.9043 1.32031 17.9043C0.792969 17.9043 0.314453 17.4355 0.314453 16.5957C0.314453 9.37891 3.37109 4.87695 10.3926 4.87695H10.6758V1.18555C10.6758 0.53125 11.1641 -0.00585938 11.8477 -0.00585938C12.3262 -0.00585938 12.6484 0.199219 13.166 0.6875L20.8711 7.89453C21.252 8.25586 21.3691 8.61719 21.3691 8.94922C21.3691 9.27148 21.2422 9.64258 20.8711 9.99414L13.166 17.2695C12.6973 17.709 12.3066 17.9043 11.8281 17.9043ZM12.3848 15.8047C12.4434 15.8047 12.502 15.7754 12.5508 15.7168L19.5137 9.13477C19.5918 9.05664 19.6113 9.00781 19.6113 8.94922C19.6113 8.89062 19.582 8.83203 19.5137 8.76367L12.5605 2.09375C12.5117 2.05469 12.4531 2.01562 12.3945 2.01562C12.3066 2.01562 12.248 2.07422 12.248 2.15234V6.0293C12.248 6.25391 12.1504 6.35156 11.9258 6.35156H10.6172C3.9082 6.35156 1.89648 11 1.70117 15.6094C1.70117 15.6875 1.73047 15.7168 1.76953 15.7168C1.81836 15.7168 1.83789 15.6875 1.86719 15.6191C3.01953 13.168 5.97852 11.5566 10.6172 11.5566H11.9258C12.1504 11.5566 12.248 11.6543 12.248 11.8789V15.6582C12.248 15.7461 12.3066 15.8047 12.3848 15.8047Z"/>
</svg>
