<svg viewBox="0 0 24 24" fill="currentColor" xmlns="http://www.w3.org/2000/svg">
<path d="M5.92383 20.377C4.17578 20.377 3.36523 19.5664 3.36523 17.8184V15.709C3.36523 15.5039 3.31641 15.3672 3.16992 15.2109L1.67578 13.707C0.445312 12.4766 0.435547 11.3438 1.67578 10.1035L3.16992 8.59961C3.31641 8.45312 3.36523 8.30664 3.36523 8.11133V5.99219C3.36523 4.23438 4.17578 3.43359 5.92383 3.43359H8.0332C8.23828 3.43359 8.38477 3.38477 8.53125 3.23828L10.0352 1.74414C11.2656 0.513672 12.4082 0.503906 13.6387 1.74414L15.1426 3.23828C15.2891 3.38477 15.4355 3.43359 15.6406 3.43359H17.75C19.5078 3.43359 20.3086 4.25391 20.3086 5.99219V8.11133C20.3086 8.30664 20.3672 8.45312 20.5137 8.59961L21.998 10.1035C23.2285 11.3438 23.2383 12.4766 21.998 13.707L20.5137 15.2109C20.3672 15.3672 20.3086 15.5039 20.3086 15.709V17.8184C20.3086 19.5762 19.498 20.377 17.75 20.377H15.6406C15.4355 20.377 15.2891 20.4355 15.1426 20.582L13.6387 22.0762C12.4082 23.3066 11.2656 23.3164 10.0352 22.0762L8.53125 20.582C8.38477 20.4355 8.23828 20.377 8.0332 20.377H5.92383ZM5.92383 18.8242H8.55078C8.85352 18.8242 9.07812 18.9121 9.29297 19.1367L11.1289 20.9824C11.7539 21.5977 11.9297 21.5977 12.5449 20.9824L14.3906 19.1367C14.5957 18.9121 14.8301 18.8242 15.123 18.8242H17.75C18.6191 18.8242 18.7559 18.6875 18.7559 17.8184V15.1914C18.7559 14.8984 18.8535 14.6738 19.0684 14.459L20.9141 12.623C21.5293 11.998 21.5293 11.8223 20.9141 11.1973L19.0684 9.36133C18.8535 9.14648 18.7559 8.92188 18.7559 8.61914V5.99219C18.7559 5.12305 18.6191 4.98633 17.75 4.98633H15.123C14.8301 4.98633 14.5957 4.9082 14.3906 4.68359L12.5449 2.83789C11.9297 2.22266 11.7539 2.22266 11.1289 2.83789L9.29297 4.68359C9.07812 4.9082 8.85352 4.98633 8.55078 4.98633H5.92383C5.04492 4.98633 4.91797 5.11328 4.91797 5.99219V8.61914C4.91797 8.92188 4.83008 9.14648 4.61523 9.36133L2.76953 11.1973C2.1543 11.8223 2.1543 11.998 2.76953 12.623L4.61523 14.459C4.83008 14.6738 4.91797 14.8984 4.91797 15.1914V17.8184C4.91797 18.6875 5.05469 18.8242 5.92383 18.8242ZM10.7773 16.5391C10.4551 16.5391 10.1914 16.4121 9.94727 16.0898L7.56445 13.1602C7.42773 12.9746 7.33984 12.7598 7.33984 12.5547C7.33984 12.1152 7.67188 11.7734 8.10156 11.7734C8.36523 11.7734 8.58008 11.8613 8.81445 12.1738L10.7383 14.6641L14.791 8.16016C14.9766 7.86719 15.2207 7.7207 15.4746 7.7207C15.875 7.7207 16.2656 8.00391 16.2656 8.43359C16.2656 8.6582 16.1387 8.87305 16.0312 9.05859L11.5684 16.0898C11.373 16.3828 11.0996 16.5391 10.7773 16.5391Z"/>
</svg>
