<svg viewBox="0 0 26 33" fill="currentColor" xmlns="http://www.w3.org/2000/svg">
<path d="M0.735352 27.542V5.32031C0.735352 2.27344 2.24414 0.720703 5.27637 0.720703H20.833C23.8652 0.720703 25.374 2.27344 25.374 5.32031V27.542C25.374 30.6035 23.8652 32.127 20.833 32.127H5.27637C2.24414 32.127 0.735352 30.6035 0.735352 27.542ZM3.09375 27.498C3.09375 28.9629 3.87012 29.7686 5.39355 29.7686H20.7158C22.2393 29.7686 23.0156 28.9629 23.0156 27.498V5.36426C23.0156 3.89941 22.2393 3.0791 20.7158 3.0791H5.39355C3.87012 3.0791 3.09375 3.89941 3.09375 5.36426V27.498ZM7.42969 8.25C6.8877 8.25 6.50684 7.85449 6.50684 7.3418C6.50684 6.84375 6.8877 6.44824 7.42969 6.44824H19.2363C19.7637 6.44824 20.1445 6.84375 20.1445 7.3418C20.1445 7.85449 19.7637 8.25 19.2363 8.25H7.42969ZM7.42969 12.498C6.8877 12.498 6.50684 12.1025 6.50684 11.5898C6.50684 11.0918 6.8877 10.6963 7.42969 10.6963H14.3584C14.8711 10.6963 15.2666 11.0918 15.2666 11.5898C15.2666 12.1025 14.8711 12.498 14.3584 12.498H7.42969ZM7.64941 27C6.4043 27 5.68652 26.3408 5.68652 25.0518V16.9072C5.68652 15.6182 6.4043 14.9443 7.64941 14.9443H18.4746C19.7637 14.9443 20.4229 15.6182 20.4229 16.9072V25.0518C20.4229 26.3408 19.7637 27 18.4746 27H7.64941Z"/>
</svg>
