<svg viewBox="0 0 17 12" fill="currentColor" xmlns="http://www.w3.org/2000/svg">
<path d="M11.5391 5.61133C10.2793 5.61133 9.19531 4.48633 9.19531 3.0332C9.19531 1.59766 10.2852 0.501953 11.5391 0.501953C12.7871 0.501953 13.877 1.57422 13.877 3.02148C13.877 4.48633 12.793 5.61133 11.5391 5.61133ZM4.78906 5.74609C3.69922 5.74609 2.75 4.76172 2.75 3.50195C2.75 2.24805 3.70508 1.29883 4.78906 1.29883C5.87891 1.29883 6.82812 2.22461 6.82812 3.49023C6.82812 4.76172 5.88477 5.74609 4.78906 5.74609ZM1.52539 11.0371C0.78125 11.0371 0.494141 10.7441 0.494141 10.2109C0.494141 8.59375 2.14648 6.64258 4.78906 6.64258C5.87891 6.64258 6.7168 6.96484 7.37305 7.39844C6.10742 8.37109 5.36328 10.1523 5.97266 11.0371H1.52539ZM7.85352 11.0371C6.93359 11.0371 6.60547 10.7734 6.60547 10.2578C6.60547 8.74609 8.49805 6.66016 11.5332 6.66016C14.5742 6.66016 16.4668 8.74609 16.4668 10.2578C16.4668 10.7734 16.1387 11.0371 15.2129 11.0371H7.85352Z"/>
</svg>
